<svg width="477" height="644" viewBox="0 0 477 644" fill="none" xmlns="http://www.w3.org/2000/svg">
<g clip-path="url(#clip0_63_1083)">
<path d="M272.866 137.655L274.476 138.057L274.879 138.862L273.269 142.082L268.439 147.315L262.804 152.547L259.584 155.365L253.546 160.597L248.716 165.427L245.899 168.647L240.666 174.685L234.629 182.735L228.994 190.785L224.164 198.835L219.334 207.287L213.296 219.362L208.869 230.23L204.844 241.5L202.429 249.147L199.209 260.82L196.391 273.297L194.379 283.762L192.366 296.24L190.756 307.912L188.744 328.44L186.731 359.835L184.316 423.832L183.109 443.555L181.499 462.875L179.486 479.78L177.071 495.075L174.254 508.76L171.436 518.822L169.424 525.262L166.204 534.117L161.776 543.777L158.154 550.62L155.336 555.047L151.311 561.085L146.884 566.72L142.456 571.952L137.224 577.185L132.796 580.807L127.564 584.832L120.721 589.26L109.854 594.895L99.3887 598.92L92.5462 600.932L100.999 600.127L109.049 598.517L117.099 596.102L125.954 592.48L135.211 587.65L142.054 583.222L147.689 579.197L152.921 574.77L157.349 571.147L163.386 565.11L166.204 561.89L171.034 556.255L175.461 550.217L179.486 544.18L183.914 536.935L187.536 530.495L192.769 520.835L195.989 514.395L199.209 508.357L206.454 493.867L211.284 485.012L216.516 475.352L220.139 469.315L226.579 458.447L231.006 451.605L238.251 440.737L243.081 433.895L247.106 428.662L250.729 424.235L255.559 418.6L260.389 413.77L265.621 409.745L272.866 405.72L278.904 402.902L288.161 399.682L292.186 398.877H301.444L307.884 400.487L314.726 403.305L319.959 406.525L324.386 410.147L328.411 415.38L333.241 423.43L337.669 432.285L339.681 435.102L342.096 435.505L343.304 434.297L344.511 429.467L346.524 427.857L348.939 428.662L350.549 431.48L350.951 433.09V437.517L349.341 441.945L346.524 445.165L344.914 445.97H341.694L338.071 444.36L336.864 452.41L335.656 458.85L333.644 464.887L330.826 470.522L325.996 476.56L321.166 480.182L316.739 482.195L315.531 482.597H312.311L309.091 480.987L307.079 478.975L304.664 476.157L302.651 471.327L302.249 469.717V462.875L303.859 458.045L306.274 454.825L308.689 452.812L312.311 451.605L315.934 452.007L318.349 453.617L320.361 456.837L320.764 460.057L316.739 461.667L314.324 462.472L313.921 465.29L315.129 470.12L317.141 472.937L320.764 473.742L324.386 472.535L327.606 470.12L330.021 466.9L332.436 462.07L334.046 456.032L334.851 450.8V444.36L333.644 436.31L331.631 429.87L329.216 424.235L325.191 418.197L321.569 414.172L316.739 410.55L311.506 408.537L304.664 407.33H298.224L288.564 408.537L280.916 410.952L274.476 413.77L268.439 417.392L263.609 421.015L257.571 426.247L253.144 430.675L249.521 435.102L246.704 438.322L242.679 443.555L239.459 447.982L233.421 456.837L227.786 465.692L222.151 474.95L216.516 484.61L210.479 495.477L206.856 501.917L204.039 507.552L199.209 516.407L193.574 526.872L187.939 536.532L181.499 546.997L176.669 553.84L173.046 558.67L169.826 562.695L165.399 567.927L159.764 573.965L153.726 579.6L148.091 584.027L141.651 588.455L134.004 592.882L124.746 597.31L116.294 600.53L107.036 602.945L99.3887 604.152L95.3637 604.555L86.5087 604.152L72.0187 602.14L60.3462 599.725L53.1012 597.712L50.6862 596.505L51.0887 594.895L49.8812 592.882L44.2462 588.052L41.0262 585.235L36.1962 580.405L32.5737 575.977L28.1462 570.745L22.9137 563.5L18.8887 556.657L15.6687 550.62L10.8387 539.752L8.42371 533.312V531.702H9.22871L14.0587 541.765L18.4862 551.425L24.1212 561.085L28.5487 567.525L32.5737 572.757L36.5987 577.185L38.6112 579.6L43.0387 583.222L46.6612 585.637L50.2837 586.845L55.9187 587.65H80.0687L89.3262 585.637L99.3887 581.21L107.036 576.782L111.866 573.16L117.904 567.927L120.721 565.11L123.941 561.085L127.161 556.657L130.784 551.022L135.614 542.167L138.431 538.142L139.639 537.74V540.96L136.821 547.4L131.991 555.45L126.759 562.292L123.136 566.72L117.099 573.16L113.879 575.977L109.451 579.6L101.804 584.43L95.7662 587.247L89.7287 589.26L82.4837 590.87L78.8612 591.272H58.7362L53.5037 590.87L59.5412 594.492L63.5662 596.102L67.9937 596.907H78.4587L88.1187 595.7L97.3762 593.285L104.621 590.467L111.464 587.247L117.501 583.625L123.136 579.6L128.771 575.172L134.809 569.537L139.639 564.305L144.066 558.67L147.286 554.242L151.714 547.4L155.336 540.96L159.361 532.105L161.776 526.067L166.606 511.98L169.021 503.125L171.839 489.44L173.046 483L175.461 463.277L177.071 446.372L179.084 415.38L180.291 388.815L182.304 348.565L183.914 325.622L186.329 303.485L188.744 287.787L190.756 276.92L193.574 263.235L197.599 247.135L200.819 236.67L204.844 225.4L209.271 214.935L214.101 204.872L219.334 195.615L224.164 187.967L229.396 180.722L234.629 173.88L238.251 169.855L241.874 165.427L244.691 162.61L247.509 159.39L259.584 147.315L264.011 143.692L269.646 139.265L272.866 137.655Z" fill="#CAA4F6"/>
<path d="M394.824 -3.8147e-06H398.044L398.849 0.804996V4.4275L394.421 27.7725L391.604 39.8475L388.786 49.105L385.164 57.5575L381.139 65.205L376.309 72.0475L371.479 77.6825L366.246 82.915L361.819 86.5375L356.586 91.3675L354.976 93.38L354.574 94.5875L357.391 94.185L363.429 91.77L370.271 88.55L379.529 83.3175L387.176 78.4875L392.811 74.4625L398.044 70.035L400.056 68.425L402.069 66.4125L405.691 62.3875L410.521 56.35L415.351 49.105L420.584 39.0425L423.401 31.7975L426.219 21.735L428.231 19.7225H430.244L431.451 21.3325V25.76L429.841 29.785L419.779 49.91L415.754 56.35L411.326 61.985L407.704 66.01L400.459 73.255L393.616 78.4875L388.384 82.11L381.139 86.5375L370.271 92.1725L360.611 96.6L356.586 99.015L354.574 101.027L352.561 103.442L348.134 106.26L340.486 110.285L329.216 115.115L319.556 118.335L313.519 119.945L307.481 120.75L301.444 123.165L295.004 127.19L289.369 131.617L284.539 136.447L280.916 142.082L277.696 148.925L274.879 157.377L273.269 165.025L272.866 168.245L272.464 179.112L271.659 181.93L269.244 183.137L267.231 182.735L266.024 180.32V176.295L268.036 172.27L268.841 166.635L270.049 159.792L272.866 150.132L281.319 124.775L282.929 115.92L283.734 100.625L284.941 94.185L286.551 90.5625L288.966 87.3425L292.186 84.525L295.004 83.3175H299.431L301.846 84.9275L303.054 87.745V90.5625H303.859L303.054 84.1225L301.846 79.2925L301.444 76.475V69.6325L302.651 65.6075L303.859 64.4L306.274 63.1925L307.884 55.545L311.104 49.5075L313.116 47.0925L314.726 45.885L317.946 45.08L321.569 42.2625L326.399 36.225L330.826 33.005L334.851 31.7975L338.071 29.785L340.889 26.565L342.901 24.955L344.914 24.15H350.146L351.354 25.3575L350.951 30.59L348.939 50.3125L346.926 70.84L345.719 79.695L343.706 89.7575L341.694 96.1975L339.279 100.625L335.254 105.857L334.851 106.662L337.669 104.65L344.914 95.795L348.939 92.1725L354.171 89.355L358.599 85.7325L362.624 82.11L366.246 78.4875L373.491 69.6325L377.516 63.9975L381.541 57.155L384.359 50.715L387.579 41.86L390.396 30.59L392.006 21.735L392.811 14.8925L393.214 3.6225L394.019 0.804996L394.824 -3.8147e-06Z" fill="#CAA4F6"/>
<path d="M336.461 335.685H344.109L354.976 336.892L363.429 338.905L370.271 341.32L377.516 344.54L383.554 347.76L389.994 352.187L394.421 355.81L398.446 359.432L404.484 365.47L408.911 371.105L412.936 376.338L418.169 384.388L423.401 394.048L427.829 404.11L432.256 417.393L435.074 429.468L436.684 439.53L437.489 449.995V464.485L436.684 474.95L434.269 489.44L431.049 501.515L427.829 510.773L423.401 520.835L419.376 527.678L409.716 542.168L406.094 546.998L400.459 554.645L395.226 561.488L392.006 566.318L389.189 571.55V574.77L389.591 576.38H397.641L398.849 577.185L399.251 580.405L398.044 584.028L395.629 587.248L393.214 589.26L391.201 590.065L387.981 589.663L384.359 587.248L381.139 582.82L379.931 579.6L379.126 573.563L378.724 572.758L375.101 573.965L368.259 577.185L361.416 579.6L353.769 581.613L348.939 582.418H336.059L325.191 580.808L316.739 578.393L313.116 576.38L311.104 574.77L308.689 571.148L307.884 568.733V561.488L309.896 556.658L313.116 553.035L316.336 551.425L317.544 551.023H321.569L325.191 552.633L327.606 555.853L328.009 557.06V563.098L326.801 564.305L319.959 563.903L317.946 565.11L317.544 568.33L319.154 571.953L321.971 575.173L325.594 577.588L332.839 579.6L335.656 580.003H343.706L352.561 578.795L360.209 576.783L368.661 573.563L376.711 569.538L383.956 564.708L389.591 560.28L394.421 555.853L399.654 550.62L403.276 546.193L407.301 540.96L411.326 534.923L415.754 527.275L420.986 516.408L424.609 506.748L427.829 495.478L429.841 485.415L431.049 476.158L431.451 471.73V452.813L430.244 440.738L429.036 432.688L427.024 423.43L425.414 417.795L422.596 409.343L418.571 400.085L413.741 390.828L408.911 383.18L403.276 375.533L399.654 371.105L395.629 366.678V365.873L394.019 365.067L391.604 362.25L387.176 358.627L382.346 354.602L374.699 349.772L366.246 345.747L358.599 343.332L351.756 341.722L343.304 340.917H334.851L325.594 341.722L312.311 344.54L303.054 347.357L295.004 350.577L287.759 353.797L280.514 357.822L273.269 362.652L268.036 366.678L263.609 370.703L260.389 373.52L255.559 378.35L251.936 382.778L247.106 388.815L240.666 398.073L235.031 407.733L229.799 417.393L224.566 428.26L217.321 445.165L214.101 451.605L213.699 449.995L217.724 438.323L222.554 427.053L228.591 414.978L233.824 405.318L237.044 400.085L240.666 394.45L246.704 385.595L250.729 380.363L255.156 375.13L257.974 371.91L262.401 367.08L265.621 364.262L270.854 359.835L278.501 354.602L283.734 351.382L287.759 348.967L297.419 344.54L307.079 340.917L315.934 338.502L323.984 336.892L336.461 335.685Z" fill="#CAA4F6"/>
<path d="M67.1888 103.443H76.4463L83.2888 104.65L90.1313 106.663L98.1813 110.285L103.816 113.505L110.256 118.335L115.891 123.165L118.709 125.983L122.331 130.41L126.356 135.643L131.186 143.29L136.821 154.158L141.651 165.428L146.481 179.918L150.104 193.2L152.116 201.653L155.336 217.753L158.154 235.06L159.764 249.55L160.971 272.493L161.776 292.215L163.386 352.993V362.25H162.984L161.776 338.503L160.569 311.133L158.959 281.348L157.349 262.028L155.739 248.745L152.519 226.608L150.104 213.728L148.091 204.068L144.871 191.188L140.846 177.905L135.211 163.013L128.369 148.925L123.539 140.875L118.306 133.63L113.476 127.995L108.244 122.763L104.219 119.543L98.5838 115.92L92.5463 112.7L85.7038 110.285L77.2513 108.675H66.3838L57.9313 110.688L51.4913 113.908L47.8688 116.323L44.2463 119.543L41.4288 123.97L39.8188 128.398V133.228L41.0263 135.643L43.0388 136.85H46.2588L48.2713 135.643L51.0888 131.618L53.5038 132.02L55.9188 135.24L56.7238 138.058V141.68L55.5163 145.705L52.6988 149.328L49.0763 152.145L46.6613 152.95H41.4288L36.5988 150.535L33.7813 147.718L32.1713 144.498L31.7688 143.29V136.045L33.3788 130.008L37.4038 122.36L41.0263 117.53L44.6488 113.505L48.6738 110.285L54.3088 107.065L59.5413 105.053L63.9688 103.845L67.1888 103.443Z" fill="#CAA4F6"/>
<path d="M56.7238 248.745H58.3338L59.5413 252.367L59.9438 255.99L65.9813 257.6H67.9938L69.2013 252.77L71.2138 253.172L72.8238 255.587L74.4338 260.82L76.4463 262.832L83.2888 265.65H84.4963L84.8988 261.625L85.3013 260.82H87.3138L88.9238 264.04L89.3263 267.662L91.3388 270.882L95.7663 273.7L99.3888 274.907L100.596 270.077L101.401 268.87L103.414 269.675L105.024 272.09L105.829 274.907L106.231 279.335L108.244 283.36L111.866 287.787L117.904 294.227L125.149 301.472L125.954 301.875L123.136 294.63L121.526 288.592L121.124 285.775V274.102L122.331 269.272L124.344 266.052L126.356 264.04L127.564 263.637H131.589L134.004 264.845L136.016 268.065V271.687L134.004 275.712L131.991 277.322H130.784L130.381 276.517V269.675H128.369L126.356 271.285L124.746 274.102L124.344 275.712V282.152L126.356 290.605L129.174 299.057L133.601 309.925L139.236 322.805L144.066 334.477L148.494 346.15L153.324 360.64L156.544 372.312L158.959 382.375L160.971 392.437L163.386 406.927L164.996 420.612L166.204 433.492L166.606 441.945L165.801 441.542L160.166 408.94L156.946 392.035L152.519 372.312L148.896 358.627L144.066 344.137L140.444 335.685L136.821 328.037L131.186 318.377L126.356 310.73L120.721 303.082L115.489 296.642L109.854 290.605L106.634 287.385L103.414 284.567L99.3888 281.347L95.7663 279.737L92.1438 280.14L88.1188 280.542L86.9113 279.737V277.322L88.1188 275.31L87.7163 272.895L83.6913 270.077L80.8738 268.87H78.0563L76.0438 270.882H73.6288L72.4213 269.675V266.052L71.2138 263.637L68.7988 262.43H65.5788L61.5538 264.845H59.5413L59.1388 263.637L59.5413 258.807L57.5288 257.6L51.8938 256.795L40.6238 255.99L37.8063 255.587L36.5988 253.977V250.757L37.8063 249.55L41.0263 249.147L45.4538 250.757L50.2838 253.575L52.6988 254.38H55.1138L55.9188 249.55L56.7238 248.745Z" fill="#CAA4F6"/>
<path d="M88.9237 409.745H99.3887L108.244 411.757L115.489 414.977L121.124 418.197L126.759 422.625L134.004 429.87L138.431 435.907L142.456 442.347L146.079 449.995L149.701 460.862L151.714 470.522L153.324 483.805V486.622L152.519 486.22L150.506 476.56L148.494 466.497L145.274 456.032L142.054 448.385L138.431 441.542L134.004 435.102L129.174 429.467L126.356 426.65L121.124 422.625L115.489 419.405L109.049 416.587L101.804 414.977L98.5837 414.575H92.1437L84.8987 415.782L79.2637 417.795L74.0312 420.612L69.6037 423.832L64.3712 429.065L60.3462 434.7L55.9187 443.152L52.6987 452.812L51.0887 462.07L50.6862 465.29V479.78L52.2962 490.647L54.7112 499.1L58.3337 506.747L61.5537 510.772L64.7737 513.187L68.7987 513.992L71.6162 512.785L72.8237 509.967L72.0187 506.345L70.0062 504.332L68.7987 502.722L69.2012 499.905L72.4212 495.88H75.2387L78.8612 498.295L81.6787 502.32L83.2887 508.357V513.187L81.6787 517.615L79.6662 519.225L76.8487 520.432H72.0187L67.5912 518.822L63.9687 516.407L60.7487 513.59V512.785H59.9437L55.1137 506.345L51.8937 499.905L49.4787 493.867L47.4662 487.025L45.0512 475.352L43.4412 472.535L37.8062 470.12L35.3912 466.9L34.1837 463.68V458.447L35.7937 456.032L38.2087 455.227L39.8187 456.032L40.6237 458.045L41.4287 461.265L43.0387 460.862L45.0512 458.447L48.6737 450.397L51.8937 441.945L55.1137 435.102L58.7362 429.065L62.3587 424.637L65.5787 421.015L72.4212 415.782L78.8612 412.562L81.6787 411.355L88.9237 409.745Z" fill="#CAA4F6"/>
<path d="M316.739 121.957H326.801L335.254 123.165L343.706 125.58L350.951 128.8L357.391 132.422L363.429 136.85L368.259 141.277L372.686 145.705L377.919 152.547L381.139 157.78L385.164 165.427L388.384 173.477L390.396 181.527V189.577L388.786 194.005L386.371 197.627L383.554 200.445L379.529 202.457L377.919 202.86H373.089L369.064 201.652L364.636 198.432L361.416 194.005L359.806 189.98L359.404 187.967V179.112L360.611 175.49L363.026 173.477L364.636 172.672L367.454 173.075L368.661 175.087L369.466 179.917L371.076 182.332L373.491 183.54H375.906L379.126 180.722L381.541 176.697V171.465L379.529 163.012L377.114 156.975L373.089 150.535L368.661 145.302L365.441 142.082L360.209 138.057L354.976 134.837L349.341 132.02L341.694 129.202L334.851 127.592L329.619 126.787H315.934L305.871 128.8L294.199 132.422H291.784L292.589 130.812L298.224 126.787L303.054 124.775L308.286 123.165L316.739 121.957Z" fill="#CAA4F6"/>
<path d="M115.086 381.167H122.331L127.161 382.777L131.589 385.595L136.821 392.437L140.444 398.475L145.274 407.33L148.494 414.172L153.726 427.052L156.544 435.907L158.959 445.165L160.166 451.202L160.569 455.227L160.971 464.887V478.572L160.166 476.962L158.556 464.082L156.544 454.825L152.519 442.75L148.896 434.7L144.066 426.247L138.431 418.197L133.199 412.16L128.771 407.732L123.136 403.305L118.709 399.682L115.489 396.865L112.269 392.84L109.854 388.01V384.79L111.464 382.777L115.086 381.167Z" fill="#D5B3FE"/>
<path d="M201.221 413.77H203.234L206.051 418.198L208.466 424.235L210.076 429.87V433.493L207.661 441.945L202.831 456.033L199.611 465.693L193.574 483L188.744 497.088L183.914 511.578L180.694 519.628L179.889 520.433V517.213L183.914 495.075L186.731 480.585L189.146 465.693L190.756 452.41L191.964 437.115L193.976 426.65L196.391 419.808L198.806 415.783L201.221 413.77Z" fill="#CAA4F6"/>
<path d="M239.459 141.68L240.264 142.082L236.641 146.51L232.214 151.34L229.396 154.56L224.164 161L218.529 169.05L212.491 179.515L208.869 186.357L203.636 198.03L198.404 211.715L193.976 224.997L189.146 242.305L185.926 256.392L183.109 270.882L180.694 287.385L178.681 305.497L176.669 330.452L175.461 354.2L175.059 386.4H174.656L174.254 383.18L173.449 365.47V332.867L174.656 312.742L175.864 297.447L178.279 278.127L180.694 263.235L183.914 247.135L187.939 231.035L191.561 219.362L196.391 205.677L200.416 196.017L204.039 187.967L208.869 179.112L212.089 173.477L216.919 166.232L220.139 161.805L224.566 156.17L231.006 149.327L234.226 146.107L238.654 142.485L239.459 141.68Z" fill="#CAA4F6"/>
<path d="M335.656 321.598H348.536L359.404 322.805L369.064 325.22L377.919 328.44L384.359 331.66L390.799 335.283L396.434 339.308L402.069 343.735L406.899 348.163L413.339 354.603L416.961 359.03L420.986 364.263L425.414 371.105L428.634 376.74L431.854 383.18L435.074 390.425L438.696 401.293L440.709 409.745L442.319 421.82V424.235L441.514 423.833L437.086 406.525L432.659 393.243L429.036 384.79L423.401 373.923L418.571 366.678L414.949 361.848L410.119 356.213L406.496 352.59V351.785L404.886 350.98L402.069 348.163L396.836 344.138L392.811 341.32L386.774 337.698L377.516 332.868L369.869 329.648L363.026 327.635L354.171 326.025L350.951 325.623H330.424L321.166 326.83L313.116 328.44L304.261 330.855L295.406 334.075L288.966 336.893L280.111 341.723L272.866 346.15L266.024 351.383L260.791 355.81L256.364 359.433L253.144 361.848H252.339L253.144 360.238L255.961 357.018L260.389 352.993L267.231 347.76L276.891 341.32L285.746 336.088L296.614 330.855L307.481 326.83L320.361 323.61L331.229 322L335.656 321.598Z" fill="#CAA4F6"/>
<path d="M226.981 251.965L229.799 252.367L233.019 254.782L235.836 258.002L238.251 262.832L239.056 266.455V271.285L237.849 276.115L235.434 279.737L232.616 282.152L230.604 282.957H227.786L224.566 281.347L223.359 280.14L223.761 277.322L228.189 271.687L228.994 269.675L224.164 264.04L223.761 263.637H220.944L218.931 265.247L215.711 271.687L213.296 278.127L210.076 288.995L207.259 301.07L204.844 315.157L203.636 326.83L203.234 336.087L202.429 337.295L202.026 333.672V317.975L204.039 300.265L206.454 286.177L208.869 275.712L210.881 268.87L213.699 262.43L216.516 258.405L219.736 254.782L224.566 252.367L226.981 251.965Z" fill="#CAA4F6"/>
<path d="M198.806 559.878L201.624 560.28L202.831 561.89V565.915L201.221 570.343L198.806 574.77L195.184 579.6L192.769 581.21L183.109 584.833L171.436 590.065L157.349 596.505L143.261 602.543L141.249 602.945V602.14L146.884 597.713L153.726 592.883L160.971 587.65L167.814 582.418L173.449 577.588L177.474 573.965L183.914 567.928L189.951 563.5L196.391 560.28L198.806 559.878Z" fill="#CAA4F6"/>
<path d="M186.329 599.725H191.964L198.001 600.932L204.441 604.152L208.466 607.372L212.089 611.397L214.906 615.825L216.919 620.252L218.529 625.485L218.931 627.9V637.157L217.321 643.597H216.114L215.309 631.925L213.699 625.485L210.479 619.045L206.454 613.812L203.234 610.995L198.001 607.775L192.769 605.762L190.756 605.36H185.926L171.436 607.775L159.361 610.592L143.664 614.215L131.186 616.63L121.124 617.837L116.696 618.24H109.049L99.3888 617.032L98.9863 615.825L105.024 615.02L120.721 614.215L129.979 613.007L139.639 610.995L170.229 602.542L179.486 600.53L186.329 599.725Z" fill="#CAA4F6"/>
<path d="M232.616 524.055H242.679L247.106 525.262L252.741 528.08L257.974 532.105L260.791 534.52L264.414 538.947L268.036 544.582L271.256 552.23L272.866 558.67L273.671 564.305V573.965L272.464 581.612L269.646 590.065L266.426 596.505L261.999 602.542L259.181 607.372L258.779 609.787L260.791 608.982H262.804L263.206 609.787V612.605L261.999 614.617L261.194 615.02H258.376L255.156 613.41L253.546 611.397V610.19H242.679L236.239 610.592L237.446 609.787L246.704 607.372L251.534 605.36L256.766 601.737L259.181 599.725L263.609 594.09L266.829 587.65L268.841 581.21L269.646 575.977V565.11L268.036 557.06L265.219 549.412L262.401 544.582L259.181 540.155L255.156 535.727L249.119 531.3L244.691 529.287L238.654 528.08H227.384L219.334 529.69L214.101 531.702L206.454 535.727L204.844 536.13L205.649 534.117L209.674 531.3L216.516 528.08L224.164 525.665L232.616 524.055Z" fill="#CAA4F6"/>
<path d="M248.314 448.385L249.119 448.788L245.899 454.423L241.471 460.863L236.641 467.705L229.396 478.573L224.566 486.22L220.541 492.66L216.114 499.905L212.491 505.943L208.466 512.785L202.429 523.25L197.196 532.508L191.561 542.168L187.134 549.815L181.499 558.67L176.669 564.305L175.059 565.11L174.656 564.305L177.474 559.073L183.914 549.413L190.354 538.948L195.989 529.288L201.221 520.03L205.246 513.188L210.881 503.125L216.114 494.27L222.956 483L227.384 476.158L230.604 471.328L235.836 463.68L240.666 457.24L244.289 452.813L248.314 448.385Z" fill="#CAA4F6"/>
<path d="M105.426 100.223L107.841 101.028L112.671 104.65L117.501 109.078L121.526 113.505L127.564 121.555L131.991 128.398L136.419 136.045L142.054 146.913L146.079 156.573L150.104 167.843L154.129 180.723L156.946 191.59L157.349 195.213L156.141 194.005L153.324 185.15L150.104 175.088L145.676 161.805L140.444 149.328L134.809 138.058L129.979 130.008L126.759 125.178L121.124 117.53L115.891 111.493L111.464 106.663L105.426 101.028V100.223Z" fill="#CAA4F6"/>
<path d="M330.021 77.28H332.436L334.046 78.89L334.851 82.5125L334.449 88.1475L332.839 93.38L331.229 96.6L329.216 98.21H326.801L325.191 96.1975L324.386 93.7825V86.135L325.996 81.7075L327.606 79.2925L330.021 77.28Z" fill="white"/>
<path d="M339.279 43.8725H340.486L340.889 44.6775V51.52L340.084 55.545L339.681 56.35H334.851L333.644 58.3625L332.034 60.375L330.021 60.7775L326.399 60.375L324.789 61.985L323.581 66.01L322.374 67.2175H317.141L315.129 73.255H314.324V69.23L315.934 64.8025L317.544 62.79L320.361 61.985L322.374 59.9725L325.594 55.9475L327.606 53.935L329.216 54.3375L331.229 55.545L333.241 53.5325L337.266 46.2875L339.279 43.8725Z" fill="white"/>
<path d="M229.799 584.833H232.214L235.434 587.248L237.044 590.468L237.446 593.688L236.641 596.505L235.434 597.713H234.226L233.421 595.298L231.409 594.895L229.396 596.103L228.591 597.31V600.933L230.201 605.36L228.591 604.555L225.371 600.933L223.359 597.31L222.956 595.7V592.48L224.164 589.663L226.981 586.443L229.799 584.833Z" fill="#CAA4F6"/>
<path d="M255.961 451.605L259.181 452.41L260.791 453.215L261.194 454.825L259.986 457.24L257.571 459.252L256.766 459.655H253.949L252.339 458.447L251.936 456.032L252.741 453.617L254.351 452.007L255.961 451.605Z" fill="#CAA4F6"/>
<path d="M233.421 125.177L235.031 125.58L236.239 127.592V134.837L235.031 136.447H232.214L230.604 134.435V130.007L232.214 126.385L233.421 125.177Z" fill="#CAA4F6"/>
<path d="M434.269 364.665L437.086 365.068L439.904 366.678L441.514 369.093L441.111 371.105L440.306 371.91H435.074L433.061 371.105L432.256 369.898V366.678L434.269 364.665Z" fill="#CAA4F6"/>
<path d="M444.331 386.802L447.954 387.205L450.771 389.62L451.576 391.23V393.645L450.369 394.45H447.551L444.331 392.84L442.319 390.022L442.721 388.01L444.331 386.802Z" fill="#CAA4F6"/>
<path d="M327.606 86.94H329.619L330.826 88.1475L331.229 89.355V93.38L329.619 96.1975L327.204 97.0025L325.594 94.99V89.355L326.801 87.3425L327.606 86.94Z" fill="#CAA4F6"/>
<path d="M123.136 543.778L125.149 544.18L126.356 546.595L126.759 548.608V551.828L125.551 553.84L123.539 554.243L121.526 552.23L121.124 549.413L121.929 545.79L123.136 543.778Z" fill="#CAA4F6"/>
<path d="M106.634 83.3175H108.646L111.464 86.5375L112.269 90.16L111.061 92.1725L110.659 92.575H108.646L106.634 90.16L105.829 87.745V84.9275L106.634 83.3175Z" fill="#CAA4F6"/>
<path d="M211.284 152.145L212.894 152.548L214.101 154.963V161L212.894 163.013L210.881 162.61L209.674 160.598V154.56L211.284 152.145Z" fill="#CAA4F6"/>
<path d="M130.784 531.703L132.796 532.105L134.004 533.715L134.406 534.923V539.753L133.199 540.96H130.784L129.576 538.948L129.174 535.325L129.979 532.508L130.784 531.703Z" fill="#CAA4F6"/>
<path d="M221.346 139.265L222.956 139.667L223.761 141.277V146.912L222.554 148.925L220.541 149.327L219.334 148.12V142.485L220.541 140.07L221.346 139.265Z" fill="#CAA4F6"/>
<path d="M408.911 334.88L411.729 335.282L414.144 336.892L414.546 339.307L411.326 341.722H409.314L407.704 339.71L407.301 336.49L408.911 334.88Z" fill="#CAA4F6"/>
<path d="M202.831 168.245L204.441 168.647L205.246 172.27V175.49L204.039 178.307L202.429 178.71L200.819 176.295V172.27L202.026 169.05L202.831 168.245Z" fill="#CAA4F6"/>
<path d="M294.601 94.185H297.419L299.431 96.1975L299.029 97.0025L296.211 96.6L292.991 98.6125L290.174 102.637L288.966 107.065L288.564 109.48H287.759V106.26L288.966 101.027L291.381 96.6L293.796 94.5875L294.601 94.185Z" fill="white"/>
<path d="M115.891 556.255L117.501 557.06L117.904 558.268V563.5L116.696 565.513L115.086 565.915L113.879 564.708L113.476 563.5V560.683L114.684 557.463L115.891 556.255Z" fill="#CAA4F6"/>
<path d="M395.226 323.61L398.044 324.012L398.849 324.817V327.635L397.239 329.647L394.421 330.05L392.409 328.037L392.811 325.22L394.019 324.012L395.226 323.61Z" fill="#CAA4F6"/>
<path d="M421.791 347.76L424.609 348.163L426.621 349.37L428.231 351.383L427.829 353.395L425.011 353.798L422.194 352.59L420.584 350.98V348.565L421.791 347.76Z" fill="#CAA4F6"/>
<path d="M243.886 464.485H247.106L248.716 466.497L248.314 468.912L247.106 470.12H243.484L241.874 468.51V466.095L243.886 464.485Z" fill="#CAA4F6"/>
<path d="M129.174 107.065H131.186L132.796 109.48L133.199 113.102L131.589 114.712L129.576 114.31L128.369 111.895V108.675L129.174 107.065Z" fill="#CAA4F6"/>
<path d="M119.514 94.99L121.929 95.3925L123.136 98.21V101.43L121.929 102.637L119.916 102.235L118.709 100.625L118.306 97.8075L119.111 95.3925L119.514 94.99Z" fill="#CAA4F6"/>
<path d="M294.601 106.26L296.211 106.663L296.614 107.468V113.505L295.406 115.518L293.796 115.115L292.991 113.505V109.078L294.601 106.26Z" fill="white"/>
<path d="M96.9738 571.147L98.1813 571.55L98.9863 573.965V577.587L97.7788 579.6L95.7663 579.197L94.9613 578.392L94.5588 576.38L95.3638 572.757L96.9738 571.147Z" fill="#CAA4F6"/>
<path d="M106.231 564.708L107.841 565.11L108.244 566.318V571.953L107.439 573.16L105.426 572.758L104.219 571.148V568.33L105.829 565.11L106.231 564.708Z" fill="#CAA4F6"/>
<path d="M235.434 476.56H237.849L239.459 477.365L239.861 479.78L237.446 481.793H234.629L233.421 480.183V477.768L235.434 476.56Z" fill="#CAA4F6"/>
<path d="M378.724 316.365L381.139 316.767L382.346 318.377L381.944 320.792L380.334 322H377.114L376.309 321.195V318.78L377.919 316.767L378.724 316.365Z" fill="#CAA4F6"/>
<path d="M145.274 132.825L146.884 134.435L148.896 138.46L149.299 140.875L148.494 142.485L146.481 142.082L145.274 140.07L144.871 137.655V133.227L145.274 132.825Z" fill="#CAA4F6"/>
<path d="M195.586 183.943L196.794 184.345L197.599 187.163L197.196 191.59L196.391 193.2L194.781 192.798L193.976 190.785V187.163L195.184 184.345L195.586 183.943Z" fill="#CAA4F6"/>
<path d="M189.549 198.432L190.756 198.835L191.159 200.042V205.677L190.354 206.885L188.744 206.08L187.939 204.47V200.847L189.549 198.432Z" fill="#CAA4F6"/>
<path d="M184.316 216.948L185.926 217.753L186.731 219.765V223.388L185.926 224.595L184.316 224.193L183.511 222.583V217.753L184.316 216.948Z" fill="#CAA4F6"/>
<path d="M138.834 119.945L140.444 120.75L141.651 124.372L141.249 126.385H139.236L137.626 124.372V121.152L138.834 119.945Z" fill="#CAA4F6"/>
<path d="M321.569 97.405L322.374 98.6125L321.569 102.235L318.751 105.052L314.726 107.065L315.531 105.455L319.154 101.43L321.569 97.405Z" fill="white"/>
<path d="M311.506 76.8775H313.519L313.116 78.4875L311.506 82.11L310.701 86.5375L309.896 86.94L309.494 84.9275V80.9025L310.701 77.6825L311.506 76.8775Z" fill="white"/>
<path d="M86.9113 575.978L87.7163 576.38V580.808L86.5088 583.223L84.8988 582.82L84.4963 580.405L85.3013 577.588L86.9113 575.978Z" fill="#CAA4F6"/>
<path d="M152.116 149.73L153.324 150.132V156.572H152.116L150.506 154.962L150.104 152.547L151.714 150.132L152.116 149.73Z" fill="#CAA4F6"/>
<path d="M128.369 394.047L130.784 396.06L136.016 402.902L136.821 404.915L134.406 402.902L129.174 396.06L128.369 394.047Z" fill="white"/>
<path d="M72.4212 580.405H74.4337L74.0312 582.82L72.4212 584.43H70.8112L70.4087 583.223L71.6162 580.808L72.4212 580.405Z" fill="#CAA4F6"/>
<path d="M201.221 358.628H201.624L202.026 361.043V369.495H201.221L200.819 367.483V359.835L201.221 358.628Z" fill="#CAA4F6"/>
<path d="M157.751 198.835L158.959 199.237V203.665L158.154 204.067L157.349 200.445L157.751 198.835Z" fill="#CAA4F6"/>
<path d="M159.764 206.885L160.569 207.288L160.971 210.105L160.569 212.118L159.361 210.91V207.69L159.764 206.885Z" fill="#CAA4F6"/>
<path d="M150.909 491.855L151.714 492.257V496.685H150.909L150.506 495.88V492.257L150.909 491.855Z" fill="#CAA4F6"/>
</g>
<defs>
<clipPath id="clip0_63_1083">
<rect width="477" height="644" fill="white"/>
</clipPath>
</defs>
</svg>
