<svg width="172" height="145" viewBox="0 0 172 145" fill="none" xmlns="http://www.w3.org/2000/svg">
<path d="M150.653 0H153.107L155.561 0.96705L157.524 3.14291L158.505 6.28583V14.5058L157.524 22.0004L156.297 30.9456L156.051 33.3632V42.792L157.033 47.1437L158.505 51.0119L158.75 52.7042V54.6383L158.014 57.5395L156.787 59.7153L154.088 62.6165L151.144 64.7924L146.728 67.21L140.839 69.3858L139.857 69.6276L143.292 71.0782L148.2 73.0123L152.371 74.9464L157.769 77.8475L161.204 80.2652L163.412 82.441L164.394 84.6169V88.4851L163.658 91.8698L162.431 95.738L159.977 102.991V105.167L161.204 106.376L163.167 106.859L168.81 107.343L170.528 108.068L171.755 109.76L172 111.936L171.264 113.628L169.546 114.595H168.074L166.602 113.628L163.412 110.244L161.695 109.277L159.486 108.551L157.524 108.31L155.806 109.035L152.126 112.661L150.653 113.387H146.482L142.802 112.42L137.894 110.485L133.233 108.068L127.835 104.683L124.399 102.024L121.455 99.3644L119.492 97.4303L117.284 94.7709L110.414 87.518L106.488 83.8916L104.034 81.7157L105.016 84.1334L106.733 88.7268L106.979 89.6939V93.3203L105.997 94.7709L105.506 95.0127H103.544L101.581 93.3203L99.6177 89.6939L98.3909 85.5839L97.9001 83.4081L96.6733 87.518L95.4465 95.2544L93.9743 105.892L92.0114 115.562L90.0485 122.09L88.8217 125.233L87.5949 127.409L85.3866 129.826L84.4051 130.31L77.535 130.794L76.5535 131.035L74.3452 135.387L74.0999 142.882L73.1184 144.09L71.8916 144.574L69.9287 144.332L68.2111 142.882L67.7204 141.673V139.739L68.4565 138.288L71.4009 134.903L72.6277 132.969L72.873 131.035L72.1369 130.068V129.585L70.9101 129.101L64.776 126.2L60.6049 124.266L57.9059 122.574L55.4522 120.398L54.4708 119.189L53.98 117.98V112.903L55.2068 107.343L58.1512 98.6391L60.3595 93.3203L60.8502 91.8698L57.1698 93.8039L52.9986 95.4962L48.582 96.705L46.6191 96.9468H42.2026L39.2582 96.2215L36.5592 94.5291L34.8417 92.8368L32.8787 88.9686L31.1612 86.0675L29.4437 83.8916L26.7447 80.9904L24.7817 79.2981L20.8559 76.1552L16.194 72.7705L11.7775 69.6276L7.85164 66.7265L4.41655 63.8253L2.45364 61.8912L0.736091 59.4736L0 57.5395V54.8801L1.47218 51.9789L3.43509 50.5284L6.13409 49.3196L11.2867 48.1107L15.2126 47.6272L19.1384 47.3855H26.99L34.3509 47.869L42.2026 48.836L50.5449 50.2866L60.3595 52.7042L69.1926 55.6054L75.0813 58.023L80.4793 60.6824L84.8959 63.3418L88.0856 65.7594L90.5392 67.9353L93.729 71.0782L95.4465 73.7376V74.2211H95.9372L96.1826 72.287L94.9558 69.3858L93.4836 66.9682L91.03 64.7924L89.8031 64.0671L90.0485 63.3418L91.2753 63.5835L93.2382 65.0341L95.2011 67.21L97.1641 71.0782L97.6548 71.5617H98.1455L97.9001 67.21L98.3909 62.8583L99.127 60.6824H100.108L99.3723 65.0341V71.3199L99.8631 72.287L100.845 73.254L102.071 66.4847L104.28 58.9901L106.243 53.913L109.187 47.6272L111.886 42.3084L114.585 37.715L118.265 31.9127L121.946 26.5939L125.381 22.0004L129.797 16.6816L132.251 14.0222L133.969 12.0881L139.121 7.01111L141.82 4.83525L145.255 2.41763L147.464 1.20881L149.672 0.241763L150.653 0Z" fill="#B15FFC" fill-opacity="0.15"/>
</svg>
