<svg width="172" height="145" viewBox="0 0 172 145" fill="none" xmlns="http://www.w3.org/2000/svg">
<path d="M21.3466 0H18.893L16.4394 0.96705L14.4765 3.14291L13.495 6.28583V14.5058L14.4765 22.0004L15.7033 30.9456L15.9486 33.3632V42.792L14.9672 47.1437L13.495 51.0119L13.2496 52.7042V54.6383L13.9857 57.5395L15.2125 59.7153L17.9116 62.6165L20.8559 64.7924L25.2725 67.21L31.1612 69.3858L32.1427 69.6276L28.7076 71.0782L23.8003 73.0123L19.6291 74.9464L14.2311 77.8475L10.796 80.2652L8.58773 82.441L7.60627 84.6169V88.4851L8.34236 91.8698L9.56918 95.738L12.0228 102.991V105.167L10.796 106.376L8.83309 106.859L3.18972 107.343L1.47218 108.068L0.24536 109.76L-4.11272e-06 111.936L0.736087 113.628L2.45363 114.595H3.92582L5.398 113.628L8.58773 110.244L10.3053 109.277L12.5135 108.551L14.4765 108.31L16.194 109.035L19.8745 112.661L21.3466 113.387H25.5178L29.1983 112.42L34.1056 110.485L38.7675 108.068L44.1655 104.683L47.6006 102.024L50.5449 99.3644L52.5078 97.4303L54.7161 94.7709L61.5863 87.518L65.5121 83.8916L67.9658 81.7157L66.9843 84.1334L65.2668 88.7268L65.0214 89.6939V93.3203L66.0029 94.7709L66.4936 95.0127H68.4565L70.4194 93.3203L72.3823 89.6939L73.6091 85.5839L74.0999 83.4081L75.3267 87.518L76.5535 95.2544L78.0257 105.892L79.9886 115.562L81.9515 122.09L83.1783 125.233L84.4051 127.409L86.6134 129.826L87.5949 130.31L94.465 130.794L95.4465 131.035L97.6548 135.387L97.9001 142.882L98.8816 144.09L100.108 144.574L102.071 144.332L103.789 142.882L104.28 141.673V139.739L103.544 138.288L100.599 134.903L99.3723 132.969L99.127 131.035L99.8631 130.068V129.585L101.09 129.101L107.224 126.2L111.395 124.266L114.094 122.574L116.548 120.398L117.529 119.189L118.02 117.98V112.903L116.793 107.343L113.849 98.6391L111.641 93.3203L111.15 91.8698L114.83 93.8039L119.001 95.4962L123.418 96.705L125.381 96.9468H129.797L132.742 96.2215L135.441 94.5291L137.158 92.8368L139.121 88.9686L140.839 86.0675L142.556 83.8916L145.255 80.9904L147.218 79.2981L151.144 76.1552L155.806 72.7705L160.223 69.6276L164.148 66.7265L167.583 63.8253L169.546 61.8912L171.264 59.4736L172 57.5395V54.8801L170.528 51.9789L168.565 50.5284L165.866 49.3196L160.713 48.1107L156.787 47.6272L152.862 47.3855H145.01L137.649 47.869L129.797 48.836L121.455 50.2866L111.641 52.7042L102.807 55.6054L96.9187 58.023L91.5207 60.6824L87.1041 63.3418L83.9144 65.7594L81.4608 67.9353L78.271 71.0782L76.5535 73.7376V74.2211H76.0628L75.8174 72.287L77.0442 69.3858L78.5164 66.9682L80.97 64.7924L82.1969 64.0671L81.9515 63.3418L80.7247 63.5835L78.7618 65.0341L76.7989 67.21L74.8359 71.0782L74.3452 71.5617H73.8545L74.0999 67.21L73.6091 62.8583L72.873 60.6824H71.8916L72.6277 65.0341V71.3199L72.1369 72.287L71.1555 73.254L69.9287 66.4847L67.7204 58.9901L65.7575 53.913L62.8131 47.6272L60.1141 42.3084L57.4151 37.715L53.7347 31.9127L50.0542 26.5939L46.6191 22.0004L42.2026 16.6816L39.7489 14.0222L38.0314 12.0881L32.8787 7.01111L30.1797 4.83525L26.7446 2.41763L24.5364 1.20881L22.3281 0.241763L21.3466 0Z" fill="#B15FFC" fill-opacity="0.15"/>
</svg>
