<svg width="20" height="20" viewBox="0 0 20 20" fill="none" xmlns="http://www.w3.org/2000/svg">
<path d="M1.74805 2.95898H18.2422L18.5156 2.97852L18.7402 3.02734L18.9258 3.0957L19.082 3.17383L19.2188 3.25195L19.3457 3.34961L19.4434 3.4375L19.5117 3.49609V3.51562H19.5312L19.6191 3.62305L19.707 3.74023L19.7852 3.86719L19.8828 4.07227L19.9512 4.27734L19.9805 4.4043H20V15.5859H19.9805L19.9316 15.7812L19.873 15.9473L19.7852 16.1328L19.7168 16.2402L19.6191 16.377L19.502 16.5039L19.3945 16.6113L19.2676 16.709L19.0918 16.8164L18.9355 16.8945L18.7793 16.9531L18.584 17.002L18.3496 17.0312H1.64062L1.45508 17.0117L1.2207 16.9531L1.06445 16.8945L0.908203 16.8164L0.761719 16.7285L0.625 16.6211L0.527344 16.5332L0.429688 16.4355L0.351562 16.3379L0.263672 16.2109L0.175781 16.0547L0.0976562 15.8789L0.0390625 15.6934L0 15.5371V4.45312L0.0195312 4.39453L0.078125 4.16992L0.175781 3.93555L0.253906 3.79883L0.361328 3.64258L0.458984 3.53516L0.527344 3.45703L0.634766 3.35938L0.810547 3.23242L0.966797 3.14453L1.14258 3.06641L1.34766 3.00781L1.48438 2.97852L1.74805 2.95898ZM2.35352 4.14062L2.06055 4.15039L2.08008 4.18945L2.76367 4.87305L2.8125 4.93164L2.88086 4.99023L2.92969 5.04883L2.99805 5.10742L3.04688 5.16602L3.11523 5.22461L3.16406 5.2832L3.23242 5.3418L3.29102 5.41016L3.33984 5.45898H3.35938L3.37891 5.49805H3.39844L3.41797 5.53711L6.55273 8.67188L6.58203 8.71094H6.60156L6.62109 8.75H6.64062L6.66016 8.78906L9.42383 11.5527L9.43359 11.5723H9.45312L9.47266 11.6113H9.49219L9.51172 11.6504H9.53125V11.6699L9.62891 11.748L9.74609 11.8066L9.85352 11.8359L9.93164 11.8457H10.0781L10.2148 11.8164L10.332 11.7676L10.4395 11.6895L12.666 9.46289V9.44336L12.7051 9.42383V9.4043L12.7441 9.38477V9.36523L12.7832 9.3457V9.32617L12.8223 9.30664V9.28711L12.8613 9.26758V9.24805L12.9004 9.22852V9.20898L12.9395 9.18945V9.16992L12.9785 9.15039V9.13086L13.0078 9.12109L13.0566 9.0625L13.125 9.00391L13.1836 8.93555L13.2422 8.88672L13.3008 8.81836L15.4688 6.65039V6.63086L15.5078 6.61133V6.5918L15.5469 6.57227V6.55273L15.5859 6.5332V6.51367L15.625 6.49414V6.47461L15.6641 6.45508V6.43555L15.7031 6.41602V6.39648L15.7422 6.37695V6.35742L15.7812 6.33789V6.31836L15.8203 6.29883V6.2793H15.8398V6.25977H15.8594L15.9277 6.18164L17.959 4.15039V4.14062H2.35352ZM1.18164 4.96094L1.17188 5.41992V15.0293L1.21094 15.0195L1.28906 14.9414L1.35742 14.8633L3.24219 12.9785V12.959L3.28125 12.9395V12.9199L3.32031 12.9004V12.8809L3.35938 12.8613V12.8418L3.39844 12.8223V12.8027L3.4375 12.7832V12.7637L3.47656 12.7441V12.7246L3.51562 12.7051V12.6855L3.55469 12.666V12.6465L3.59375 12.627V12.6074L3.63281 12.5879V12.5684L3.67188 12.5488V12.5293H3.69141V12.5098H3.71094V12.4902H3.73047V12.4707H3.75V12.4512H3.76953V12.4316H3.78906L3.85742 12.3535L6.19141 10.0195L6.20117 9.99023L6.11328 9.90234L6.05469 9.83398H6.03516L6.01562 9.79492L3.19336 6.97266L3.14453 6.91406L3.07617 6.85547L3.02734 6.79688H3.00781L2.98828 6.75781H2.96875L2.94922 6.71875H2.92969L2.91016 6.67969L1.19141 4.96094H1.18164ZM18.8086 4.96094L18.3984 5.37109V5.39062L18.3594 5.41016V5.42969L18.3203 5.44922V5.46875L18.2812 5.48828V5.50781L18.2422 5.52734V5.54688L18.2031 5.56641V5.58594L18.1641 5.60547V5.625L18.125 5.64453V5.66406L18.0859 5.68359V5.70312L18.0469 5.72266V5.74219L18.0078 5.76172V5.78125L17.9785 5.79102L17.9297 5.84961L17.8711 5.89844L17.8027 5.97656L15.166 8.61328V8.63281L15.127 8.65234V8.67188L15.0879 8.69141V8.71094L15.0488 8.73047V8.75L15.0098 8.76953V8.78906L14.9707 8.80859V8.82812L14.9316 8.84766V8.86719L14.8926 8.88672V8.90625L14.8535 8.92578V8.94531L14.8145 8.96484V8.98438L14.7754 9.00391V9.02344L14.7363 9.04297V9.0625L14.6973 9.08203V9.10156L14.668 9.11133L14.6191 9.16992L13.7988 9.99023L13.8184 10.0293L14.7949 11.0059L14.8438 11.0645L14.9121 11.123L14.9609 11.1816L15.0293 11.2402L15.0781 11.2988L15.1465 11.3574L15.1953 11.416L15.2637 11.4746L15.3223 11.543L15.3809 11.5918L15.4102 11.6309H15.4297L15.4492 11.6699L18.75 14.9707L18.7988 15.0293H18.8184V4.96094H18.8086ZM7.04102 10.8398L6.96289 10.9082L6.44531 11.4258V11.4453L6.40625 11.4648V11.4844L6.36719 11.5039V11.5234L6.32812 11.543V11.5625L6.28906 11.582V11.6016L6.25 11.6211V11.6406L6.21094 11.6602V11.6797L6.17188 11.6992V11.7188L6.13281 11.7383V11.7578L6.09375 11.7773V11.7969L6.05469 11.8164V11.8359L6.01562 11.8555V11.875L5.97656 11.8945V11.9141L5.9375 11.9336V11.9531L5.89844 11.9727V11.9922L5.86914 12.002L5.82031 12.0605L5.75195 12.1191L5.68359 12.1973L2.74414 15.1367V15.1562L2.70508 15.1758V15.1953L2.66602 15.2148V15.2344L2.62695 15.2539V15.2734L2.58789 15.293V15.3125L2.55859 15.3223L2.49023 15.4004L2.1582 15.7324L2.11914 15.7617V15.7812H2.09961V15.8008L2.06055 15.8203L2.04102 15.8496L15.4688 15.8594H16.5039L17.9492 15.8496L17.9395 15.8203L17.8809 15.7715L17.8125 15.6934L15.2246 13.1055L15.1758 13.0469L15.1074 12.9883L15.0586 12.9297L15.0195 12.8906H15L14.9805 12.8516H14.9609L14.9414 12.8125H14.9219L14.9023 12.7734H14.8828L14.8633 12.7344H14.8438L14.8242 12.6953L12.9785 10.8496L12.9492 10.8398L12.8516 10.9375V10.957H12.832V10.9766L12.793 10.9961L12.5 11.2891V11.3086L12.4609 11.3281V11.3477L12.4219 11.3672V11.3867H12.4023V11.4062H12.3828V11.4258H12.3633V11.4453H12.3438V11.4648H12.3242V11.4844H12.3047V11.5039H12.2852V11.5234H12.2656V11.543H12.2461V11.5625H12.2266V11.582H12.207V11.6016H12.1875L12.1191 11.6797L12.0898 11.6992V11.7188H12.0703V11.7383H12.0508L11.9922 11.8066L11.2695 12.5293L11.1914 12.5977L11.0645 12.6953L10.9082 12.793L10.7227 12.8809L10.4883 12.959L10.3027 12.998L10.166 13.0176H9.81445L9.58008 12.9785L9.375 12.9199L9.16992 12.832L8.99414 12.7344L8.84766 12.627L8.71094 12.5L8.64258 12.4414L8.59375 12.3828L8.52539 12.3242L8.47656 12.2656L8.4375 12.2266H8.41797L8.39844 12.1875H8.37891L8.35938 12.1484H8.33984L8.32031 12.1094H8.30078L8.28125 12.0703H8.26172L8.24219 12.0312H8.22266L8.20312 11.9922H8.18359L8.16406 11.9531H8.14453L8.125 11.9141H8.10547L8.08594 11.875H8.06641L8.04688 11.8359H8.02734L8.00781 11.7969H7.98828L7.96875 11.7578L7.05078 10.8398H7.04102Z" fill="#303030"/>
</svg>
