<svg width="38" height="38" viewBox="0 0 38 38" fill="none" xmlns="http://www.w3.org/2000/svg">
<path d="M10.6318 1.61426H27.3496L28.1104 1.65137L28.7598 1.72559L29.335 1.83691L29.9102 1.98535L30.5596 2.20801L31.0791 2.43066L31.4688 2.61621L31.8398 2.82031L32.1738 3.02441L32.5264 3.26562L32.8789 3.52539L33.1943 3.78516L33.3984 3.9707L33.5469 4.10059L33.9922 4.5459L34.1221 4.69434L34.3447 4.9541L34.5303 5.19531L34.7715 5.5293L34.957 5.80762L35.1055 6.04883L35.3652 6.5127L35.625 7.05078L35.8105 7.51465L36.0332 8.18262L36.1631 8.70215L36.2559 9.18457L36.3301 9.72266L36.3672 10.1865L36.3857 10.9844V14.2686L36.3672 27.7949L36.3301 28.2959L36.2559 28.8154L36.1445 29.3906L35.9961 29.9473L35.8105 30.4854L35.6064 30.9863L35.3467 31.5244L35.1611 31.8584L34.957 32.1924L34.8086 32.415L34.623 32.6748L34.4375 32.916L34.2705 33.1201L34.0664 33.3613L33.8438 33.6025L33.5098 33.9365L33.3613 34.0664L33.1572 34.252L32.6748 34.623L32.3594 34.8457L32.0068 35.0684L31.6172 35.291L31.2275 35.4951L30.7637 35.6992L30.2627 35.8848L29.7246 36.0518L29.0938 36.2002L28.5371 36.293L27.999 36.3486L27.6836 36.3672H24.1953L24.0098 36.293L23.8242 36.1445L23.7129 35.9775L23.6572 35.8477L23.6201 35.7178V25.4756L23.6387 23.4531L23.6758 23.2861L23.7871 23.082L23.9541 22.915L24.1396 22.8223L24.3066 22.7852L27.5908 22.7666L28.0176 20.0947L28.0918 19.6123V19.5566H24.3809L24.1582 19.5195L23.9727 19.4268L23.8242 19.2969L23.6943 19.0928L23.6572 19L23.6387 18.8887L23.6201 15.9385V15.3076L23.6758 14.8623L23.7686 14.4727L23.917 14.083L24.084 13.7861L24.2695 13.5449L24.4551 13.3594L24.7148 13.1738L25.0303 13.0254L25.3457 12.9326L25.6426 12.8955H28.5742V9.94531L28.5928 9.87109L27.7949 9.75977L27.2012 9.7041L26.8672 9.68555H25.5869L24.9189 9.74121L24.3066 9.83398L23.6387 9.98242L23.1006 10.1494L22.5811 10.3535L22.2656 10.502L21.8574 10.7432L21.5977 10.9287L21.4121 11.0771L21.1709 11.2998L21.041 11.4297L20.8369 11.6895L20.6699 11.9492L20.5029 12.2646L20.373 12.6172L20.2803 12.9697L20.2246 13.415L20.2061 18.5176L20.1875 18.9443L20.1133 19.1484L20.002 19.3154L19.8535 19.4453L19.668 19.5195L19.3896 19.5566H16.0127V22.7852H19.4268L19.6309 22.8037L19.8164 22.8779L20.002 23.0264L20.1318 23.2119L20.1875 23.3789L20.2061 23.7314V35.3096L20.1875 35.8291L20.0576 36.0889L19.9834 36.1816L19.8164 36.293L19.6309 36.3672H10.3164L9.72266 36.3301L9.0918 36.2373L8.7207 36.1631L8.12695 36.0146L7.51465 35.8105L7.06934 35.625L6.62402 35.4209L6.1416 35.1611L5.75195 34.9199L5.45508 34.7158L5.1582 34.4932L4.89844 34.2891L4.71289 34.1221L4.56445 33.9922L4.32324 33.7695L4.08203 33.5283L3.95215 33.3799L3.78516 33.1943L3.61816 32.9902L3.3584 32.6562L3.08008 32.248L2.83887 31.8584L2.61621 31.4502L2.35645 30.9121L2.15234 30.3926L1.98535 29.8916L1.85547 29.3906L1.7627 28.9453L1.68848 28.4814L1.63281 27.8877L1.61426 27.4795V10.502L1.65137 9.83398L1.72559 9.25879L1.85547 8.59082L2.02246 7.97852L2.18945 7.49609L2.41211 6.95801L2.61621 6.53125L2.85742 6.10449L3.06152 5.77051L3.26562 5.47363L3.50684 5.13965L3.7666 4.82422L4.00781 4.5459L4.63867 3.91504L4.84277 3.74805L5.08398 3.54395L5.43652 3.28418L5.88184 2.9873L6.29004 2.74609L6.79102 2.48633L7.25488 2.28223L7.7002 2.11523L8.08984 1.98535L8.66504 1.83691L9.24023 1.72559L9.85254 1.65137L10.6318 1.61426ZM10.6318 3.11719L10.1309 3.13574L9.57422 3.19141L8.90625 3.32129L8.38672 3.46973L7.86719 3.65527L7.25488 3.93359L6.84668 4.15625L6.53125 4.36035L6.17871 4.60156L5.95605 4.78711L5.75195 4.9541L5.5293 5.1582L5.43652 5.23242V5.26953L5.3623 5.30664L5.21387 5.45508L5.08398 5.60352L4.89844 5.80762L4.69434 6.06738L4.49023 6.3457L4.26758 6.67969L4.00781 7.125L3.80371 7.5332L3.61816 7.97852L3.41406 8.59082L3.26562 9.18457L3.19141 9.61133L3.13574 10.2051L3.11719 10.7246V27.4053L3.13574 27.832L3.20996 28.5L3.30273 28.9824L3.45117 29.5391L3.61816 30.0215L3.82227 30.5039L4.04492 30.9492L4.32324 31.4131L4.58301 31.7842L4.78711 32.0439L4.9541 32.248L5.21387 32.5264L5.26953 32.6006H5.30664V32.6377H5.34375L5.38086 32.7119H5.41797V32.749L5.56641 32.8789L5.78906 33.083L6.04883 33.2871L6.27148 33.4541L6.56836 33.6582L6.93945 33.8809L7.34766 34.1035L7.88574 34.3447L8.29395 34.4932L8.81348 34.6416L9.22168 34.7344L9.7041 34.8086L10.3535 34.8643L18.6475 34.8828L18.7031 34.8643V25.3643L18.6846 24.2881L15.1592 24.2695L14.9551 24.2139L14.751 24.084L14.6211 23.917L14.5469 23.75L14.5098 23.5088V18.833L14.5469 18.5732L14.6396 18.3877L14.8066 18.2021L15.0293 18.0908L15.1035 18.0723L18.6846 18.0537L18.7031 13.6562L18.7217 13.2295L18.7959 12.6914L18.9072 12.2275L19.0371 11.8379L19.2412 11.3926L19.4639 11.0029L19.6123 10.7988L19.7979 10.5576L19.9648 10.3721L20.0762 10.2422L20.1875 10.1494V10.1123L20.2617 10.0752L20.4844 9.87109L20.8369 9.61133L21.1523 9.40723L21.542 9.18457L22.0059 8.96191L22.4326 8.79492L23.0449 8.59082L23.6387 8.44238L24.2324 8.33105L24.752 8.25684L25.3643 8.20117L25.6982 8.18262H26.9414L27.7021 8.23828L28.333 8.3125L29.2051 8.46094L29.5762 8.55371L29.7617 8.64648L29.9102 8.77637L30.0215 8.96191L30.0771 9.20312V13.582L30.04 13.8789L29.9287 14.1016L29.7988 14.2314L29.5762 14.3428L29.3721 14.3799L25.7168 14.3984L25.5684 14.4355L25.4199 14.5283L25.3086 14.6582L25.2344 14.8066L25.1602 15.0293L25.123 15.3447L25.1045 15.8457H25.1416V18.0537L29.1309 18.0723L29.335 18.1465L29.502 18.2578L29.6318 18.4248L29.7061 18.5918L29.7246 18.666V18.9443L29.5391 20.0947L29.335 21.375L29.1123 22.7852L28.9639 23.6943L28.8896 23.8984L28.7598 24.0654L28.6113 24.1768L28.4258 24.251L28.3145 24.2695L25.1602 24.2881L25.1416 24.3066V34.8643H27.7021L28.3145 34.8086L28.8711 34.7158L29.4463 34.5674L30.0029 34.3818L30.4854 34.1777L30.9307 33.9551L31.3389 33.7139L31.5615 33.5654L31.877 33.3428L32.1738 33.1016L32.3594 32.9346L32.3965 32.916V32.8789L32.4707 32.8418L32.916 32.3965L33.083 32.1924L33.2314 32.0254L33.4541 31.7285L33.6211 31.4873L33.8066 31.1904L34.0479 30.7637L34.2891 30.2441L34.4561 29.7988L34.6045 29.335L34.7344 28.7783L34.8086 28.3145L34.8457 27.9805L34.8643 27.6836V10.2422L34.8086 9.68555L34.7158 9.12891L34.5674 8.53516L34.4004 8.03418L34.1777 7.49609L33.9736 7.08789L33.7695 6.73535L33.4727 6.29004L33.25 5.99316L33.0459 5.75195L32.8047 5.47363L32.4707 5.13965L32.3223 5.00977L32.0811 4.80566L31.8398 4.62012L31.5244 4.39746L31.1719 4.1748L30.8379 3.98926L30.3926 3.7666L29.7803 3.52539L29.3535 3.39551L28.834 3.26562L28.2402 3.17285L27.7949 3.13574L27.3125 3.11719H10.6318ZM25.0488 15.8828L25.0303 15.9199H25.0674L25.0488 15.8828ZM24.9746 15.957L24.9932 15.9941L25.0117 15.957H24.9746Z" fill="#303030"/>
</svg>
