<svg width="36" height="35" viewBox="0 0 36 35" fill="none" xmlns="http://www.w3.org/2000/svg">
<g clip-path="url(#clip0_47_27)">
<path d="M9.71143 2.03369H10.5146L11.0957 2.08496L11.5913 2.15332L12.0869 2.25586L12.6509 2.40967L13.2148 2.61475L13.7104 2.83691L14.2061 3.09326L14.4624 3.24707L14.7188 3.41797L15.0264 3.64014L15.3511 3.87939L15.5391 4.0332L15.7441 4.22119L15.915 4.375L16.1372 4.58008L16.4277 4.87061L16.5474 5.00732L16.7354 5.2124L16.8892 5.40039L17.1113 5.67383L17.3506 5.99854L17.5215 6.23779L17.8804 6.78467L18.1367 7.229L18.2393 7.3999V7.43408H18.3076L18.3418 7.33154L18.4614 7.14355L18.564 6.95557L18.752 6.64795L19.0596 6.18652L19.1963 5.99854L19.4014 5.7251L19.6235 5.43457L19.8286 5.19531L20.0337 4.97314L20.1533 4.83643L20.3413 4.63135L20.478 4.51172L20.6147 4.375L20.7515 4.25537L20.9736 4.05029L21.2129 3.8623L21.8623 3.38379L22.1699 3.1958L22.4604 3.0249L22.8535 2.81982L23.4517 2.56348L24.0669 2.3584L24.6821 2.20459L25.1606 2.11914L25.7588 2.05078L26.0151 2.03369H26.8354L27.3823 2.06787L28.0146 2.15332L28.5444 2.25586L29.1768 2.42676L29.4844 2.5293L30.1338 2.78564L30.4927 2.95654L30.8174 3.12744L31.0908 3.28125L31.7573 3.72559L31.9795 3.89648L32.2017 4.08447L32.3896 4.23828L32.7314 4.5459L32.7998 4.63135L33.21 5.0415L33.3638 5.22949L33.5859 5.50293L33.8081 5.79346L34.0815 6.20361L34.355 6.63086L34.5942 7.09229L34.7651 7.41699L35.0386 8.06641L35.1924 8.49365L35.3633 9.04053L35.4658 9.43359L35.6025 10.0659L35.7051 10.7837L35.7393 11.04L35.7734 11.0571V13.1421H35.7393L35.6196 13.9795L35.5342 14.4409L35.3291 15.2271L35.1582 15.7397L34.9702 16.2354L34.8848 16.4575L34.6455 16.9531L34.4575 17.3633L34.2012 17.8247L34.0474 18.0811L33.791 18.5254L33.6543 18.7134L33.5176 18.9185L33.3296 19.1919L33.0903 19.5337L32.8682 19.8242L32.646 20.0977L32.4751 20.3198L32.2529 20.5933L32.1162 20.7642L31.9111 20.9863L31.7915 21.123L31.6377 21.2939L31.4839 21.4819L31.3813 21.6016H31.3472L31.313 21.6699L31.0737 21.9092L30.9541 22.0459L30.6807 22.3193L30.561 22.4561L29.9116 23.1055L29.7749 23.2251L29.2793 23.7207L29.1426 23.8403L28.9888 23.9941L28.8521 24.1138L28.3052 24.6265L28.2539 24.6436V24.6777L28.1172 24.7974L27.8779 25.0024L27.6729 25.1904L27.5361 25.3101L27.2969 25.5151L27.0747 25.7202L26.938 25.8398L26.6987 26.0449L26.4766 26.25L26.3398 26.3696L26.1689 26.5234L26.0322 26.6431L22.6826 29.5142L22.5117 29.668L22.3237 29.8218L22.1357 29.9927L21.9478 30.1465L21.7085 30.3516L21.4521 30.5737L21.2129 30.7788L20.9565 31.001L20.7344 31.189L20.478 31.4111L20.2388 31.6162L19.9824 31.8384L19.5039 32.2485L19.2476 32.4707L19.0083 32.6758L18.8203 32.8125L18.6494 32.8979L18.4102 32.9492L18.2051 32.9663L17.8804 32.8979L17.6753 32.7783L17.4873 32.6245L17.0088 32.2144L16.7524 31.9922L16.5132 31.7871L16.2568 31.5649L16.0347 31.377L15.8638 31.2231L15.6758 31.0693L15.5049 30.9155L15.3169 30.7617L15.1289 30.5908L14.9409 30.437L14.7871 30.3003L14.5991 30.1465L14.394 29.9585L14.2231 29.8218L14.0352 29.6509L13.8472 29.4971L13.6763 29.3433L13.4883 29.1895L13.3174 29.0356L13.1294 28.8818L12.9414 28.7109L12.7534 28.5571L12.5825 28.4033L12.3945 28.2495L11.8818 27.8052L11.6938 27.6514L11.5229 27.4976L11.335 27.3438L11.147 27.1729L10.959 27.019L10.7026 26.7969L10.5146 26.626L10.3267 26.4722L10.0703 26.2329L9.88232 26.0791L9.64307 25.8569L9.50635 25.7373L9.33545 25.5835L9.19873 25.4639L9.02783 25.3101L8.89111 25.1904L8.72021 25.0366L8.54932 24.8999L8.44678 24.8145V24.7803L8.37842 24.7461L8.25879 24.6265L8.12207 24.5068L7.84863 24.2505L7.64355 24.0625L7.52393 23.9429L7.38721 23.8232L7.2334 23.6694L7.09668 23.5498L6.53271 22.9858L6.396 22.8662L6.00293 22.4731L5.8833 22.3364L5.60986 22.063L5.49023 21.9263L5.2168 21.6528L5.09717 21.5161L5.08008 21.4648H5.0459L4.89209 21.2769L4.66992 21.0376L4.55029 20.9009L4.34521 20.6616L4.12305 20.3882L3.55908 19.6704L3.31982 19.3457L3.14893 19.0894L2.96094 18.8159L2.72168 18.457L2.56787 18.2007L2.31152 17.7563L2.08936 17.3633L1.8501 16.8677L1.61084 16.3379L1.37158 15.6885L1.20068 15.1758L0.978516 14.2871L0.893066 13.7744L0.807617 13.2275H0.790527V13.0566H0.773438V11.1768L0.790527 11.1597L0.910156 10.2368L1.04688 9.57031L1.1665 9.0918L1.40576 8.32275L1.61084 7.81006L1.79883 7.38281L1.96973 7.04102L2.1748 6.66504L2.31152 6.42578L2.43115 6.25488L2.61914 5.96436L2.79004 5.7251L3.0293 5.41748L3.18311 5.22949L3.26855 5.10986H3.30273L3.33691 5.0415L3.57617 4.80225L3.6958 4.66553L4.00342 4.35791L4.19141 4.2041L4.43066 3.99902L4.60156 3.8623L4.80664 3.7085L5.2168 3.43506L5.50732 3.24707L5.98584 2.99072L6.43018 2.76855L7.14795 2.49512L7.60938 2.3584L8.22461 2.20459L8.99365 2.08496L9.40381 2.05078L9.71143 2.03369ZM9.74561 4.10156L9.13037 4.15283L8.53223 4.25537L8.01953 4.39209L7.66064 4.51172L7.16504 4.7168L6.82324 4.8877L6.51562 5.05859L6.0542 5.36621L5.84912 5.52002L5.62695 5.70801L5.43896 5.86182L5.31934 5.96436L5.19971 6.10107L4.875 6.42578L4.68701 6.66504L4.46484 6.93848L4.24268 7.26318L4.08887 7.50244L3.93506 7.75879L3.72998 8.15186L3.61035 8.39111L3.42236 8.85254L3.30273 9.17725L3.14893 9.68994L3.0293 10.2026L2.94385 10.6641L2.87549 11.1768L2.84131 11.7065V12.4585L2.89258 13.1421L2.99512 13.7915L3.09766 14.2529L3.26855 14.834L3.37109 15.1416L3.66162 15.8594L4.05469 16.6455L4.29395 17.0557L4.51611 17.4146L4.73828 17.7563L4.90918 17.9956L5.13135 18.3032L5.31934 18.5596L5.50732 18.7988L5.74658 19.0894L5.93457 19.3286L6.13965 19.5679L6.32764 19.7729L6.44727 19.9097L6.60107 20.0806L6.7207 20.2173L7.13086 20.6616L7.45557 20.9863L7.5752 21.123L8.10498 21.6528L8.2417 21.7725L8.66895 22.1997H8.70312L8.72021 22.251L8.85693 22.3706L9.13037 22.627L9.35254 22.832L9.86523 23.3105L10.0532 23.4644L10.2925 23.6865L10.4292 23.8062L10.6685 24.0112L10.8906 24.2163L11.0273 24.3359L11.2666 24.541L11.4717 24.729L11.6597 24.8828L11.7793 25.0024L11.9673 25.1562L12.1895 25.3613L12.3774 25.5151L12.5483 25.6689L12.7363 25.8228L12.9927 26.0449L13.4712 26.4551L13.6934 26.6431L13.9497 26.8652L14.1719 27.0532L14.4282 27.2754L14.6162 27.4292L14.8042 27.6001L14.9922 27.7539L15.1631 27.9077L15.3511 28.0615L15.8638 28.5059L16.0859 28.6938L16.3423 28.916L16.5645 29.104L16.8208 29.3262L17.043 29.5142L17.2993 29.7363L17.5215 29.9243L17.7778 30.1465L18 30.3345L18.2393 30.5396L18.3247 30.5225L18.5127 30.3516L18.7007 30.1978L18.8716 30.0439L19.0596 29.8901L19.2305 29.7363L19.4185 29.5825L19.6064 29.4116L19.7944 29.2578L20.0337 29.0527L20.29 28.8306L23.1611 26.3696L23.3491 26.2158L23.5371 26.0449L23.7251 25.8911L23.896 25.7373L24.084 25.5835L24.2549 25.4297L24.4429 25.2759L24.6309 25.105L24.7676 24.9854L24.9385 24.8315L25.1777 24.6265L25.3828 24.4385L25.5708 24.2847L25.6904 24.165L25.8784 24.0112L26.1177 23.7891L26.2544 23.6694L26.4937 23.4644L26.7158 23.2593L26.8525 23.1396L27.1089 22.9004L27.2798 22.7466L27.3994 22.627L27.5361 22.5073L27.8096 22.251L28.0146 22.0459L28.0488 22.0288V21.9946L28.1172 21.9604L28.5615 21.5161L28.6128 21.4819V21.4478L28.6812 21.4136L28.8862 21.2085V21.1743L28.9375 21.1572L29.0571 21.0205L29.3477 20.73V20.6958H29.3818L29.5015 20.5591L29.7236 20.3369L29.8433 20.2002L29.9971 20.0293L30.168 19.8413L30.4072 19.5679V19.5337H30.4414L30.5952 19.3457L31.0396 18.7988L31.2446 18.5425L31.4497 18.252L31.6719 17.9443L31.877 17.6538L32.1504 17.2095L32.3726 16.8506L32.5605 16.5088L32.8853 15.8594L33.1758 15.1245L33.3125 14.7144L33.4834 14.0991L33.5859 13.5522L33.6543 13.125L33.7056 12.3218V11.8091L33.6714 11.228L33.5688 10.459L33.415 9.7583L33.2271 9.14307L33.0732 8.73291L32.8853 8.28857L32.6802 7.87842L32.4751 7.51953L32.1333 7.00684L31.9453 6.76758L31.7231 6.49414L31.5693 6.32324L31.3643 6.10107L31.1421 5.87891L30.9712 5.74219L30.7319 5.53711L30.4414 5.33203L30.1851 5.16113L29.8774 4.97314L29.3135 4.68262L28.6812 4.44336L28.271 4.32373L27.8267 4.22119L27.2456 4.13574L26.75 4.10156H26.0835L25.5537 4.15283L25.0752 4.23828L24.6309 4.35791L24.1694 4.52881L23.6909 4.73389L23.2295 4.99023L22.9561 5.16113L22.7681 5.29785L22.4434 5.53711L22.2554 5.69092L21.9648 5.96436L21.7598 6.15234L21.5034 6.42578L21.3838 6.5625L21.23 6.7334L21.0249 7.00684L20.8027 7.31445L20.6318 7.5708L20.3755 7.98096L20.1875 8.28857L19.9482 8.75L19.7261 9.19434L19.4355 9.87793L19.2476 10.3906L19.0767 10.7153L18.9229 10.8691L18.752 10.9717L18.5298 11.0571L18.3418 11.0913H18.188L17.9316 11.04L17.6924 10.9204L17.4873 10.7324L17.3848 10.5786L17.231 10.2197L17.0771 9.80957L16.8379 9.24561L16.6328 8.81836L16.4961 8.56201L16.3594 8.28857L16.2056 8.03223L16.0005 7.70752L15.7612 7.33154L15.5903 7.09229L15.3511 6.78467L15.1631 6.5625L14.9409 6.32324L14.8213 6.18652L14.6504 6.01562L14.5137 5.896L14.377 5.75928L14.189 5.60547L13.8813 5.36621L13.5737 5.14404L13.1294 4.8877L12.7876 4.69971L12.0186 4.39209L11.54 4.25537L10.9761 4.15283L10.4292 4.10156H9.74561Z" fill="#3F2854"/>
</g>
<defs>
<clipPath id="clip0_47_27">
<rect width="35" height="35" fill="white" transform="translate(0.773438)"/>
</clipPath>
</defs>
</svg>
