<svg width="38" height="38" viewBox="0 0 38 38" fill="none" xmlns="http://www.w3.org/2000/svg">
<g clip-path="url(#clip0_56_206)">
<path d="M9.22168 0H28.9082V0.0185547L29.8545 0.166992L30.3555 0.27832L30.9492 0.445312L31.543 0.649414L32.0625 0.87207L32.5264 1.09473L32.9346 1.31738L33.3057 1.54004L33.7139 1.81836L33.9922 2.02246L34.252 2.22656L34.4932 2.43066L34.7529 2.65332L34.9199 2.82031L34.957 2.83887V2.87598H34.9941V2.91309L35.0684 2.9502V2.9873H35.1055L35.2354 3.13574L35.4023 3.30273L35.5322 3.45117L35.7363 3.69238L35.9775 4.00781L36.2188 4.3418L36.4043 4.62012L36.6455 5.00977L36.8682 5.41797L37.0166 5.71484L37.1836 6.06738L37.4248 6.67969L37.6289 7.31055L37.7773 7.9043L37.9072 8.60938L37.9629 9.01758L38 9.03613V28.9082L37.9629 28.9453L37.8701 29.5947L37.7402 30.2627L37.5732 30.875L37.3691 31.4688L37.2207 31.8398L37.0166 32.2852L36.8682 32.582L36.7012 32.8975L36.4785 33.2686L36.2188 33.6582L36.0889 33.8438L35.8477 34.1592L35.6436 34.4004L35.4766 34.6045L35.4023 34.6973H35.3652L35.3281 34.7715L34.7715 35.3281L34.623 35.458L34.4375 35.625L33.918 36.0332L33.6025 36.2559L33.2871 36.46L33.0088 36.627L32.582 36.8682L32.1738 37.0723L31.6543 37.2949L31.1533 37.4805L30.5967 37.6475L30.0771 37.7773L29.3535 37.9072L28.7227 38H9.11035L9.05469 37.9629L8.3125 37.8516L7.75586 37.7402L7.27344 37.6104L6.73535 37.4434L6.12305 37.2021L5.64062 36.9795L5.26953 36.7939L4.82422 36.5342L4.50879 36.3301L4.21191 36.126L3.98926 35.959L3.71094 35.7363L3.50684 35.5693L3.26562 35.3467L3.11719 35.2168L2.63477 34.7344L2.46777 34.5303L2.28223 34.3262L1.91113 33.8438L1.61426 33.417L1.3916 33.0459L1.16895 32.6562L0.964844 32.2666L0.723633 31.71L0.556641 31.2646L0.371094 30.708L0.222656 30.1143L0.111328 29.5205L0.0185547 28.8525L0 28.7783V9.18457L0.0371094 9.01758L0.129883 8.34961L0.259766 7.71875L0.408203 7.18066L0.612305 6.56836L0.816406 6.06738L1.03906 5.58496L1.26172 5.1582L1.42871 4.87988L1.61426 4.58301L1.7627 4.36035L1.9668 4.08203L2.20801 3.7666L2.31934 3.61816H2.35645L2.39355 3.54395L2.63477 3.26562L2.76465 3.13574L2.7832 3.09863H2.82031L2.85742 3.02441H2.89453L2.93164 2.9502L3.08008 2.80176H3.11719V2.76465L3.26562 2.63477L3.48828 2.43066L3.69238 2.26367L3.9707 2.04102L4.30469 1.7998L4.69434 1.54004L5.02832 1.33594L5.43652 1.11328L5.75195 0.946289L6.30859 0.705078L6.64258 0.575195L7.16211 0.408203L7.62598 0.27832L8.23828 0.148438L8.83203 0.0556641L9.22168 0ZM10.0566 1.1875L9.48145 1.20605L8.90625 1.26172L8.34961 1.35449L7.79297 1.48438L7.29199 1.63281L6.79102 1.81836L6.23438 2.05957L5.77051 2.30078L5.45508 2.48633L5.13965 2.69043L4.82422 2.91309L4.49023 3.17285L4.23047 3.39551L4.04492 3.5625L3.91504 3.69238L3.84082 3.74805V3.78516L3.7666 3.82227L3.63672 3.9707L3.48828 4.11914L3.32129 4.32324L3.1543 4.50879L2.87598 4.87988L2.63477 5.23242L2.44922 5.5293L2.22656 5.91895L2.00391 6.36426L1.83691 6.75391L1.70703 7.08789L1.55859 7.55176L1.41016 8.1084L1.31738 8.59082L1.26172 8.9248L1.20605 9.55566L1.1875 10.1309V27.9619L1.20605 28.4814L1.28027 29.2051L1.3916 29.8174L1.55859 30.4668L1.7627 31.0605L1.94824 31.5059L2.20801 32.0439L2.41211 32.415L2.69043 32.8604L2.93164 33.1943L3.11719 33.4355L3.28418 33.6396L3.46973 33.8438L3.59961 33.9922L4.11914 34.5117L4.32324 34.6787L4.49023 34.8271L4.73145 35.0127L5.06543 35.2539L5.38086 35.458L5.69629 35.6436L5.95605 35.792L6.38281 35.9961L6.75391 36.1631L7.14355 36.3115L7.62598 36.46L8.12695 36.5898L8.60938 36.6826L9.01758 36.7383L9.75977 36.7939H28.3145L28.9824 36.7383L29.5762 36.6455L30.1514 36.5156L30.7637 36.3301L31.3018 36.126L31.7842 35.9033L32.1553 35.7178L32.6562 35.4209L32.8789 35.2725L33.1943 35.0498L33.4541 34.8457L33.6953 34.6416L33.9551 34.4189L34.4932 33.8809L34.6602 33.6768L34.8828 33.417L35.1426 33.0645L35.3096 32.8232L35.5322 32.4707L35.7363 32.1182L35.8848 31.8213L36.0889 31.376L36.2744 30.8936L36.4414 30.374L36.5898 29.7803L36.6826 29.2793L36.7568 28.6113L36.7754 28.2959V9.59277L36.7197 8.99902L36.627 8.40527L36.4971 7.83008L36.3301 7.25488L36.1631 6.80957L35.959 6.32715L35.7178 5.84473L35.458 5.39941L35.1611 4.9541L34.9014 4.60156L34.6973 4.36035L34.5303 4.15625L34.3076 3.93359L34.1777 3.78516L34.0479 3.65527L33.8994 3.52539L33.6768 3.32129L33.4727 3.1543L33.1387 2.89453L32.6934 2.59766L32.3037 2.35645L32.0068 2.18945L31.5801 1.98535L31.1904 1.81836L30.6895 1.63281L30.1143 1.46582L29.6133 1.35449L29.0566 1.26172L28.4072 1.20605L27.8691 1.1875H10.0566Z" fill="#303030"/>
<path d="M18.7031 9.77832H19.2412L19.835 9.81543L20.4473 9.88965L21.041 10.001L21.6162 10.1494L22.3213 10.3906L22.8408 10.6133L23.1934 10.7803L23.6016 11.0029L23.9912 11.2441L24.2881 11.4482L24.4922 11.5967L24.7334 11.7822L24.9746 11.9863L25.1787 12.1533L25.3828 12.3574L25.5312 12.4873L25.8096 12.7842L25.9951 12.9883L26.1621 13.1924L26.4219 13.5264L26.6816 13.8975L26.96 14.3428L27.2197 14.8252L27.4609 15.3262L27.6836 15.9014L27.832 16.3467L27.9805 16.9033L28.0918 17.4785L28.166 18.0166L28.2031 18.4805V19.5381L28.166 19.9834L28.0918 20.5215L27.999 21.0039L27.8877 21.4492L27.7393 21.9316L27.5723 22.3955L27.4053 22.7852L27.1455 23.3232L26.9785 23.6201L26.8115 23.8984L26.626 24.1768L26.4033 24.4922L26.1992 24.752L25.9395 25.0674L25.7168 25.3086L25.5869 25.457L25.4385 25.5869L25.1973 25.8281L25.0488 25.958L24.7334 26.2178L24.4922 26.4033L24.1768 26.626L23.7686 26.8857L23.3789 27.1084L23.0635 27.2754L22.5254 27.5166L22.0244 27.7021L21.5049 27.8691L20.7998 28.0361L20.2432 28.1289L19.7236 28.1846L19.4453 28.2031H18.5361L17.8682 28.1475L17.2744 28.0547L16.6992 27.9248L16.124 27.7578L15.5674 27.5537L15.1406 27.3682L14.6768 27.1455L14.2314 26.8857L13.9346 26.7002L13.6377 26.4961L13.3408 26.2734L13.1367 26.1064L12.877 25.8838L12.6543 25.6797L12.1719 25.1973L12.0049 24.9932L11.8379 24.8076L11.6523 24.5664L11.4111 24.2324L11.2256 23.9541L10.9473 23.4902L10.6875 22.9893L10.4834 22.5439L10.2793 22.0059L10.1123 21.4678L9.98242 20.9297L9.88965 20.4287L9.81543 19.8535L9.77832 19.2783V18.7031L9.81543 18.1279L9.88965 17.5527L10.0195 16.8848L10.1494 16.4023L10.3721 15.7344L10.5576 15.2891L10.7246 14.918L10.9102 14.5654L11.207 14.0645L11.3926 13.7861L11.6895 13.3779L11.8564 13.1738L11.9492 13.0439H11.9863L12.0234 12.9697L12.1904 12.7842L12.3945 12.5615L12.7285 12.2275L12.877 12.0977L13.1367 11.875L13.3965 11.6709L13.749 11.4111L14.1201 11.1699L14.4355 10.9844L14.7695 10.7988L15.1592 10.6133L15.4375 10.4834L15.9756 10.2793L16.5137 10.1123L16.959 10.001L17.5342 9.88965L18.1279 9.81543L18.7031 9.77832ZM18.4248 11.0029L17.8867 11.0586L17.3672 11.1514L16.9033 11.2627L16.3467 11.4297L15.7529 11.6709L15.2148 11.9307L14.7324 12.209L14.3242 12.4873L13.9902 12.7471L13.7305 12.9697L13.582 13.0996L13.4893 13.1738V13.2109L13.415 13.248L13.2109 13.4521L13.0811 13.6006L12.8955 13.8047L12.8398 13.8789V13.916H12.8027L12.6729 14.083L12.4502 14.3799L12.2275 14.7139L11.9492 15.1963L11.8008 15.4746L11.5596 16.0312L11.4297 16.3652L11.2627 16.9219L11.1328 17.4785L11.0586 17.9053L11.0029 18.499L10.9844 18.9072V19.1855L11.0215 19.7236L11.0771 20.2061L11.1699 20.7256L11.3184 21.2822L11.5039 21.8389L11.6523 22.1914L11.8193 22.5625L12.0234 22.9521L12.3018 23.3975L12.5059 23.6943L12.7285 23.9912L12.877 24.1768H12.9141L12.9512 24.251L13.1738 24.4922L13.248 24.585H13.2852V24.6221L13.4336 24.752L13.6562 24.9746L13.8604 25.1416L14.1016 25.3457L14.417 25.5684L14.6953 25.7539L15.0664 25.9766L15.5674 26.2363L16.0312 26.4404L16.6621 26.6631L17.2373 26.8115L17.8311 26.9229L18.332 26.9785L18.5732 26.9971H19.4453L20.0391 26.9414L20.5957 26.8486L21.1338 26.7188L21.5605 26.5889L22.0059 26.4219L22.5068 26.1992L22.9707 25.958L23.3604 25.7168L23.6572 25.5127L24.0469 25.2158L24.3066 24.9932L24.5293 24.7891L24.9561 24.3623L25.123 24.1582L25.3271 23.917L25.5312 23.6387L25.6982 23.3975L25.9023 23.0635L26.0879 22.7295L26.2363 22.4326L26.3848 22.1172L26.5703 21.6162L26.7373 21.0781L26.8672 20.5029L26.9414 20.0391L26.9971 19.4453V18.5547L26.9414 17.9609L26.8486 17.4043L26.7373 16.9404L26.5889 16.4395L26.4404 16.0312L26.2363 15.5674L26.0137 15.1221L25.8281 14.8066L25.5869 14.4355L25.3457 14.1016L25.1416 13.8604L24.9746 13.6562L24.752 13.4336L24.6221 13.2852L24.3066 12.9883L24.1025 12.8213L23.8799 12.6357L23.5088 12.376L23.1934 12.1719L22.8779 11.9863L22.4512 11.7637L21.9873 11.5596L21.5234 11.3926L21.041 11.2441L20.4658 11.1143L19.9463 11.04L19.4824 11.0029H18.4248Z" fill="#303030"/>
<path d="M29.6318 6.5127L29.9658 6.53125L30.2627 6.60547L30.5596 6.73535L30.8008 6.90234L31.0234 7.10645L31.1904 7.3291L31.3203 7.55176L31.4316 7.86719L31.4688 8.05273V8.55371L31.3945 8.86914L31.2461 9.20312L31.0605 9.46289L30.9678 9.57422H30.9307L30.9121 9.62988L30.6895 9.79688L30.5039 9.9082L30.2256 10.0195L30.0029 10.0752L29.8545 10.0938H29.502L29.1865 10.0381L28.9082 9.92676L28.7041 9.81543L28.5186 9.66699L28.2773 9.42578L28.1104 9.16602L27.9805 8.8877L27.9062 8.57227L27.8877 8.40527V8.23828L27.9248 7.95996L27.9805 7.7373L28.0918 7.47754L28.2217 7.27344L28.3701 7.08789L28.5186 6.93945L28.8154 6.73535L29.0566 6.62402L29.3164 6.5498L29.6318 6.5127ZM29.6133 7.71875L29.4277 7.77441L29.2793 7.88574L29.1865 7.99707L29.1123 8.18262V8.44238L29.1865 8.62793L29.3164 8.77637L29.502 8.86914L29.5576 8.8877H29.7988L30.0215 8.79492L30.1699 8.64648L30.2441 8.49805L30.2627 8.44238V8.18262L30.1699 7.95996L30.04 7.83008L29.8359 7.7373L29.7432 7.71875H29.6133Z" fill="#303030"/>
</g>
<defs>
<clipPath id="clip0_56_206">
<rect width="38" height="38" fill="white"/>
</clipPath>
</defs>
</svg>
