<svg width="29" height="21" viewBox="0 0 29 21" fill="none" xmlns="http://www.w3.org/2000/svg">
<g clip-path="url(#clip0_55_168)">
<path d="M18.1636 -0.0130615H18.5054L18.6831 0.0310561L18.9019 0.133997L19.0933 0.281056L19.2163 0.413409L19.2983 0.486938L19.3804 0.58988L19.4624 0.663409L19.5444 0.76635L20.9663 2.29576L21.0483 2.36929L21.1304 2.47223L21.2124 2.54576L21.2944 2.6487L21.3765 2.72223L21.4585 2.82517L21.5405 2.8987L21.6226 3.00164L21.7046 3.07517L21.7866 3.17811L21.8687 3.25164L21.9507 3.35459L22.0327 3.42811L22.1147 3.53106L22.1968 3.60459L22.2788 3.70753L22.3608 3.78106L22.4429 3.884L22.5249 3.95753L22.6069 4.06047L22.689 4.134L22.771 4.23694L22.853 4.31047L22.9351 4.41341L23.0171 4.48694L23.0991 4.58988L23.1812 4.66341L23.2632 4.76635L23.3452 4.83988L23.4272 4.94282L23.5093 5.01635L23.5913 5.11929L23.6733 5.19282L23.7554 5.29576L23.8374 5.36929L23.9331 5.48694L27.3784 9.19282L27.5015 9.384L27.5835 9.56047L27.6519 9.83988V10.1781L27.5972 10.4134L27.5015 10.6487L27.3647 10.8546L19.0659 19.7811L18.9292 19.884L18.7378 19.9869L18.5601 20.0458L18.4097 20.0752H18.1772L17.9585 20.0311L17.7397 19.9281L17.5894 19.8252L17.4253 19.6634L17.3022 19.4869L17.1929 19.2516L17.1382 19.0605L17.1245 18.9722V18.6634L17.1792 18.4134L17.2749 18.1781L17.4116 17.9869L17.5347 17.8399L23.6187 11.2958L20.7065 11.2811H3.12451L2.89209 11.2516L2.71436 11.1928L2.49561 11.0752L2.31787 10.9134L2.2085 10.7811L2.09912 10.5899L2.04443 10.4722L1.98975 10.2664L1.9624 10.0605L1.97607 9.82517L2.03076 9.60459L2.09912 9.42811L2.19482 9.26635L2.34521 9.08988L2.46826 8.97223L2.65967 8.85459L2.86475 8.78106L3.02881 8.75164H18.4097L23.6187 8.73694L23.5776 8.69282V8.66341L23.5366 8.6487L23.4409 8.53106L17.4253 2.06047L17.3022 1.86929L17.2065 1.6487L17.1519 1.384V1.11929L17.1929 0.898703L17.2476 0.722233L17.3569 0.531056L17.4526 0.398703L17.521 0.310468L17.7261 0.148703L17.9312 0.045762L18.0679 0.00164436L18.1636 -0.0130615Z" fill="black"/>
</g>
<defs>
<clipPath id="clip0_55_168">
<rect width="28" height="20" fill="white" transform="translate(0.813965 0.0869141)"/>
</clipPath>
</defs>
</svg>
