<svg width="38" height="38" viewBox="0 0 38 38" fill="none" xmlns="http://www.w3.org/2000/svg">
<g clip-path="url(#clip0_56_212)">
<path d="M17.8311 0H20.3359V0.0185547L21.2266 0.111328L22.1357 0.241211L22.9336 0.389648L23.7314 0.575195L24.6406 0.834961L25.4199 1.09473L26.1807 1.3916L26.6631 1.5957L27.2197 1.85547L28.0361 2.26367L28.9268 2.7832L29.2422 2.9873L29.6689 3.26562L30.0029 3.50684L30.3184 3.72949L30.9863 4.24902L31.2275 4.45312L31.5059 4.69434L31.6914 4.86133L31.8398 4.99121L32.1367 5.26953L32.3223 5.45508L32.3594 5.47363V5.51074L32.4336 5.54785L32.6934 5.82617L32.8789 6.01172L33.0088 6.16016L33.25 6.41992L33.3613 6.5498V6.58691H33.3984L33.5654 6.79102L33.7695 7.03223L34.0107 7.34766L34.2705 7.68164L34.5117 8.01562L34.7715 8.38672L34.9756 8.70215L35.1982 9.05469L35.4209 9.42578L35.6992 9.9082L36.0703 10.6318L36.293 11.0957L36.5713 11.7266L36.7939 12.3018L36.9609 12.7656L37.1836 13.4336L37.4434 14.3613L37.6289 15.1777L37.7773 16.0127L37.8887 16.8291L37.9629 17.5527L38 17.5898V20.373L37.9629 20.4102L37.8887 21.1709L37.7773 22.0059L37.666 22.6182L37.5361 23.249L37.332 24.0654L37.165 24.6221L36.9424 25.29L36.7754 25.7539L36.5527 26.3105L36.4043 26.6445L36.1631 27.1826L35.8291 27.8506L35.6064 28.2588L35.4023 28.6113L35.2354 28.8896L34.9756 29.2979L34.6416 29.7988L34.4561 30.0586L34.2148 30.3926L33.8066 30.9121L33.5654 31.209L33.3613 31.4316L33.1943 31.6357L32.9717 31.877L32.7119 32.1553L32.0439 32.8232L31.8955 32.9531L31.7471 33.1016L31.543 33.2686L31.3203 33.4727L31.1162 33.6396L30.8936 33.8252L30.6523 34.0107L30.3184 34.2705L30.0029 34.4932L29.6318 34.7529L29.2607 34.9941L29.001 35.1611L28.5371 35.4395L28.0176 35.7363L27.6094 35.9404L27.2568 36.126L26.5703 36.4414L25.8838 36.7197L25.2344 36.9609L24.5479 37.1836L23.75 37.4062L23.1377 37.5547L22.2842 37.7217L21.5791 37.833L20.6328 37.9443L20.2061 37.9814L20.1133 38H17.6641L17.5898 37.9629L16.4209 37.833L15.4004 37.666L14.9551 37.5732L13.9531 37.332L13.3408 37.1465L12.7471 36.9609L12.1162 36.7197L11.5039 36.4785L10.2793 35.9033L9.85254 35.6621L9.35156 35.3838L9.24023 35.3096L8.98047 35.3652L8.08984 35.6436L7.36621 35.8662L5.43652 36.46L1.68848 37.6104L1.57715 37.6289H1.31738L1.09473 37.5547L0.927734 37.4248L0.797852 37.2393L0.742188 37.1094L0.723633 37.0166V36.8125L0.816406 36.4229L1.20605 35.0127L1.52148 33.8623L2.1709 31.5244L2.65332 29.7803L2.83887 29.1123L2.82031 29.001L2.63477 28.667L2.43066 28.3145L2.20801 27.9248L1.7627 27.0342L1.55859 26.5889L1.1875 25.6611L1.02051 25.1973L0.723633 24.2695L0.426758 23.1006L0.31543 22.5254L0.166992 21.6348L0.0556641 20.6328L0.0185547 20.3545H0V17.7754L0.0371094 17.5342L0.129883 16.625L0.259766 15.7529L0.408203 14.9922L0.59375 14.1943L0.760742 13.6191L0.90918 13.1367L1.15039 12.4316L1.35449 11.9121L1.57715 11.374L1.74414 11.0215L1.89258 10.6875L2.07812 10.335L2.33789 9.83398L2.59766 9.38867L2.7832 9.07324L3.02441 8.70215L3.1543 8.49805L3.39551 8.14551L3.63672 7.81152L3.82227 7.55176L4.06348 7.25488L4.30469 6.93945L4.3418 6.88379H4.37891L4.41602 6.80957L4.58301 6.62402L4.75 6.41992L5.19531 5.9375L5.3252 5.80762L5.34375 5.77051H5.38086L5.41797 5.69629L5.78906 5.3252L5.9375 5.19531L6.10449 5.02832L6.25293 4.89844L6.49414 4.67578L6.69824 4.50879L6.97656 4.26758L7.21777 4.08203L7.47754 3.87793L7.77441 3.65527L8.08984 3.43262L8.42383 3.19141L8.75781 2.9873L8.9248 2.87598L9.31445 2.63477L9.79688 2.35645L10.2422 2.11523L10.9473 1.7627L11.4482 1.54004L11.8008 1.3916L12.4688 1.13184L13.3408 0.834961L14.25 0.575195L15.0479 0.389648L15.9756 0.222656L16.9033 0.0927734L17.7012 0.0185547L17.8311 0ZM18.5547 1.46582L17.7754 1.50293L16.9404 1.57715L16.0312 1.70703L15.2705 1.85547L14.3057 2.09668L13.6377 2.30078L12.9326 2.54199L12.4131 2.74609L12.0605 2.89453L11.4482 3.17285L10.7432 3.52539L10.3164 3.7666L9.81543 4.06348L9.35156 4.36035L8.99902 4.60156L8.73926 4.78711L8.44238 5.00977L8.20117 5.19531L7.99707 5.3623L7.83008 5.49219L7.57031 5.71484L7.38477 5.88184L7.23633 6.01172L7.05078 6.17871L6.86523 6.36426L6.82812 6.38281V6.41992H6.79102V6.45703L6.7168 6.49414L6.45703 6.75391L6.32715 6.90234L6.08594 7.14355L5.95605 7.29199L5.7334 7.55176L5.56641 7.7373L5.39941 7.94141L5.26953 8.1084L5.06543 8.36816L4.87988 8.60938L4.62012 8.98047L4.43457 9.24023L4.24902 9.53711L3.98926 9.94531L3.71094 10.4277L3.52539 10.7617L3.33984 11.1143L3.17285 11.4668L3.04297 11.7266L2.7832 12.3203L2.52344 13.0068L2.22656 13.8789L1.98535 14.751L1.81836 15.4932L1.70703 16.0684L1.61426 16.6992L1.54004 17.3672L1.48438 18.1094L1.46582 18.7588V19.1113L1.48438 19.7607L1.52148 20.3916L1.63281 21.4492L1.78125 22.3213L1.89258 22.8594L2.09668 23.6572L2.22656 24.1211L2.54199 25.0674L2.72754 25.5312L3.02441 26.2363L3.28418 26.7744L3.43262 27.0527L3.58105 27.3496L3.72949 27.6279L3.87793 27.8691L4.10059 28.2402L4.28613 28.5557L4.37891 28.7969V29.0195L4.32324 29.3164L3.87793 30.9307L3.1543 33.5283L2.7832 34.8643L2.56055 35.6621L2.54199 35.792L2.74609 35.7363L4.30469 35.2539L5.82617 34.79L6.7168 34.5117L9.01758 33.8066L9.18457 33.7695H9.42578L9.68555 33.8623L10.2051 34.1592L10.6504 34.4189L11.0771 34.6416L11.6152 34.9014L12.0234 35.0869L12.6172 35.3281L13.1553 35.5322L14.1943 35.8662L15.252 36.126L16.0312 36.2744L16.7734 36.3857L17.7383 36.4785L18.3691 36.5156L18.8701 36.5342H19.1855L20.0762 36.4971L20.7627 36.4414L21.6533 36.3301L22.5811 36.1631L23.3789 35.9775L24.2695 35.7178L25.0859 35.4395L25.9209 35.1055L26.4033 34.8828L26.8301 34.6787L27.4053 34.3818L28.166 33.9365L28.5928 33.6582L28.8525 33.4912L29.1865 33.25L29.502 33.0273L29.7617 32.8232L30.0586 32.582L30.2256 32.4521L30.4111 32.2852L30.6152 32.1182L31.1904 31.5801L31.7656 31.0049L31.8955 30.8564L32.0625 30.6895L32.1367 30.5967V30.5596H32.1738L32.3408 30.3555L32.5264 30.1514L32.7119 29.9102L32.9346 29.6318L33.1943 29.2793L33.4355 28.9453L33.6211 28.667L34.0107 28.0547L34.3076 27.5352L34.4932 27.2012L34.6416 26.9229L34.8457 26.4961L35.1611 25.8096L35.4766 24.9932L35.7549 24.1768L35.9961 23.3047L36.126 22.7666L36.2744 22.0059L36.3857 21.2637L36.46 20.5586L36.4971 20.0762L36.5156 19.6494V18.3691L36.4785 17.6641L36.4229 17.0332L36.3115 16.2168L36.1816 15.4932L35.9775 14.6211L35.7549 13.8232L35.4395 12.8955L35.1426 12.1533L34.8643 11.541L34.623 11.04L34.4375 10.6875L34.1777 10.2236L33.8994 9.75977L33.6582 9.38867L33.4355 9.05469L33.2129 8.73926L32.9531 8.38672L32.7119 8.08984L32.5264 7.84863L32.3594 7.66309L32.1924 7.45898L31.9697 7.21777L31.8027 7.03223L31.6357 6.86523L31.6172 6.82812H31.5801L31.543 6.75391L31.2461 6.45703L31.0977 6.32715L30.8008 6.03027L30.6523 5.90039L30.1328 5.45508L29.873 5.25098L29.5391 4.99121L28.8711 4.50879L28.5557 4.30469L28.1475 4.04492L27.6094 3.72949L27.2754 3.54395L26.7373 3.26562L26.2363 3.02441L25.6797 2.7832L25.0117 2.52344L24.1953 2.24512L23.2676 1.98535L22.5254 1.81836L21.709 1.66992L21.1709 1.5957L20.4287 1.52148L19.8721 1.48438L19.3711 1.46582H18.5547Z" fill="#303030"/>
<path d="M11.2441 7.14355H12.0234L12.3389 7.19922L12.6172 7.29199L12.7842 7.38477L12.9512 7.51465V7.55176H12.9883L13.2295 7.88574L13.4893 8.3125L13.6748 8.62793L13.8047 8.85059L13.916 9.05469L14.1758 9.53711L14.4355 10.001L14.6582 10.4277L14.9922 11.0957L15.1592 11.4668L15.3633 11.9307L15.6045 12.5801L15.6973 12.9883L15.7158 13.0811V13.4336L15.623 13.8975L15.4932 14.2686L15.3076 14.6396L15.085 14.9922L14.8252 15.3447L14.6953 15.5117H14.6582L14.6211 15.5859L14.3428 15.8828L14.2129 16.0312L14.0459 16.2168L13.9346 16.3652L14.0459 16.7734L14.1943 17.1074L14.3428 17.4043L14.584 17.7939L14.8252 18.1279L15.0664 18.4434L15.2891 18.7031L15.4561 18.9072L15.5859 19.0371L15.7158 19.1855L15.8828 19.3525L16.0127 19.501L16.2168 19.7051L16.3652 19.835L16.5137 19.9834L16.6621 20.1133L16.9404 20.373L17.1445 20.54L17.3672 20.7441L17.627 20.9482L18.2949 21.4678L18.7773 21.8389L19.0557 22.043L19.2783 22.1914L19.9648 22.6553L20.1875 22.8037L20.4658 22.9707L20.9482 23.249L21.3379 23.4717L21.6904 23.6387L21.8945 23.7129L22.0244 23.6943L22.2285 23.5645L22.4883 23.3418L22.8037 23.0264L22.8965 22.915H22.9336L22.9707 22.8408L23.1377 22.6738L23.3418 22.4141L23.5088 22.2285L23.917 21.709L24.1582 21.375L24.3809 21.0596L24.6035 20.7627L24.7148 20.6328L24.9561 20.4658L25.1416 20.373L25.3457 20.3174L25.4756 20.2988H25.958L26.2734 20.373L26.6074 20.5029L26.9414 20.6885L27.3125 20.9111L27.7393 21.1895L28.0547 21.3936L28.2588 21.5234L28.7227 21.8203L29.0381 22.0244L29.4463 22.2842L29.7803 22.4883L30.3184 22.8037L30.5967 22.9707L31.1348 23.2861L31.4316 23.4717L31.6172 23.6387L31.7285 23.7871L31.7842 23.9541V24.2695L31.6729 24.8633L31.5059 25.5127L31.2832 26.1807L31.1348 26.5518L30.9121 27.0342L30.6709 27.4609L30.4111 27.8506L30.2627 28.0547L30.0957 28.2588L29.9287 28.4443L29.7988 28.5928L29.7061 28.6855H29.6689V28.7227L29.5205 28.8525L29.335 29.0195L29.0752 29.2051L28.8711 29.3535L28.4072 29.6318L27.999 29.8359L27.6279 29.9844L27.0713 30.1699L26.5518 30.2998L25.9209 30.4111L25.1602 30.4854L24.752 30.5039H24.1768L23.3418 30.4668L22.2285 30.3369L21.4492 30.1885L20.8369 30.0586L19.8906 29.7803L19.4453 29.6318L18.8887 29.4092L18.2949 29.168L17.1445 28.5928L16.6807 28.3145L16.0869 27.9619L15.6602 27.665L15.3447 27.4424L14.9922 27.2012L14.6953 26.96L14.4355 26.7559L14.1201 26.4961L13.916 26.3291L13.7119 26.1436L13.5635 26.0137L13.2666 25.7354L13.0625 25.5498L12.9141 25.4199L12.4688 24.9746L12.3389 24.8262L12.042 24.5293L11.9121 24.3809L11.708 24.1582L11.541 23.9541L11.3555 23.75L11.1885 23.5459L10.9844 23.3047L10.7432 22.9893L10.4834 22.6553L10.2979 22.4141L10.001 21.9873L9.74121 21.6162L9.48145 21.2266L9.24023 20.8369L8.96191 20.3916L8.73926 20.002L8.49805 19.5566L8.3125 19.2227L8.05273 18.7031L7.84863 18.2764L7.58887 17.6826L7.34766 17.0889L7.18066 16.5879L7.03223 16.0869L6.88379 15.3076L6.82812 14.7139L6.80957 14.417V14.1201L6.84668 13.4521L6.95801 12.71L7.06934 12.209L7.21777 11.6895L7.42188 11.0957L7.66309 10.5391L7.88574 10.0752L8.1084 9.66699L8.38672 9.20312L8.64648 8.83203L8.94336 8.40527L9.01758 8.29395H9.05469L9.0918 8.21973L9.33301 7.92285L9.55566 7.66309L9.64844 7.55176H9.68555V7.51465L9.87109 7.38477L10.0566 7.31055L10.3721 7.25488L11.0029 7.16211L11.2441 7.14355ZM11.2998 8.62793L10.6875 8.70215L10.5576 8.75781L10.1494 9.27734L10.0195 9.46289L9.79688 9.77832L9.53711 10.2051L9.35156 10.5205L9.20312 10.7988L8.86914 11.5225L8.66504 12.0791L8.5166 12.5986L8.38672 13.2295L8.3125 13.8975V14.6396L8.38672 15.3076L8.49805 15.8457L8.64648 16.3096L8.77637 16.6807L9.03613 17.293L9.16602 17.5898L9.31445 17.8867L9.5 18.2764L9.68555 18.6289L9.94531 19.1113L10.0938 19.3525L10.3721 19.835L10.6318 20.2432L10.9102 20.6699L11.1885 21.0781L11.4297 21.4121L11.6523 21.7275L11.9121 22.0615L12.1533 22.3584L12.3574 22.6182L12.5244 22.8223L12.7471 23.082L12.9512 23.3047L13.1182 23.5088L13.415 23.8242L14.3428 24.752L14.4912 24.8818L14.8623 25.2158L15.0664 25.3828L15.2334 25.5312L15.4746 25.7168L15.7344 25.9209L15.9756 26.1064L16.3281 26.3662L16.625 26.5518L16.8105 26.6816L17.1816 26.9229L17.4971 27.1084L18.0166 27.3867L18.4248 27.6094L18.8701 27.8135L19.3525 28.0176L19.8164 28.2031L20.9297 28.5557L21.5234 28.7041L22.0801 28.8154L22.8779 28.9268L23.6387 29.001L23.9541 29.0195H24.9189L25.2715 29.001L25.9023 28.9268L26.5146 28.7969L26.7744 28.7227L27.2568 28.5557L27.7949 28.2959L28.0918 28.1104L28.3516 27.9248L28.6299 27.6836L28.7412 27.5908L28.8711 27.4424L29.0938 27.2012L29.2979 26.9043L29.4277 26.7002L29.5947 26.4033L29.7803 26.0137L29.9473 25.5684L30.0771 25.123L30.2256 24.5664L30.207 24.4736L29.9287 24.3066L29.4092 23.9912L28.8154 23.6387L28.3701 23.3604L27.3682 22.7109L26.9971 22.4697L26.5332 22.1729L26.1621 21.9502L25.8652 21.8018L25.6982 21.7646L25.624 21.876L25.4385 22.1357L25.1973 22.4697L24.9375 22.8223L24.7334 23.082L24.5664 23.2861L24.418 23.4717L24.1582 23.75L23.9541 23.9727L23.6572 24.2695L23.5088 24.3994L23.3418 24.5479L23.082 24.7334L22.8965 24.8633L22.4141 25.1045L22.0801 25.1973H21.8203L21.5049 25.123L21.0225 24.9375L20.373 24.6221L19.6494 24.2139L19.2041 23.9355L18.9443 23.7686L18.499 23.4717L18.2021 23.2676L17.8682 23.0264L17.5156 22.7666L17.2744 22.5811L16.9961 22.3584L16.7363 22.1543L16.5322 21.9873L16.3467 21.8203L16.1611 21.6719L15.957 21.4863L15.8086 21.3564L15.3262 20.9111L15.0479 20.6328H15.0107L14.9736 20.5586L14.6768 20.2617L14.5469 20.1133L14.3057 19.8535L13.9717 19.4453L13.7305 19.1484L13.4336 18.7217L13.1738 18.332L12.9697 17.9609L12.8213 17.6641L12.6729 17.293L12.5244 16.8477L12.4316 16.3652V15.9941L12.4873 15.79L12.6172 15.5859L12.7842 15.4004L12.8027 15.3447H12.8398L12.9697 15.1963L13.248 14.8994L13.3779 14.751L13.5449 14.5654L13.8047 14.2129L14.0088 13.916L14.1758 13.5449L14.2314 13.2852V13.0996L14.083 12.6543L13.916 12.2646L13.7676 11.9678L13.2852 10.9844L13.0254 10.4834L12.7842 10.0566L12.5615 9.62988L12.3203 9.22168L12.0049 8.70215L11.9492 8.62793H11.2998Z" fill="#303030"/>
</g>
<defs>
<clipPath id="clip0_56_212">
<rect width="38" height="38" fill="white"/>
</clipPath>
</defs>
</svg>
