<svg width="20" height="20" viewBox="0 0 20 20" fill="none" xmlns="http://www.w3.org/2000/svg">
<g clip-path="url(#clip0_56_183)">
<path d="M9.89258 0.605469H10.1367L10.4688 0.615234L10.9082 0.644531L11.3574 0.693359L11.8359 0.771484L12.1973 0.849609L12.5781 0.947266L12.8418 1.02539L13.1934 1.14258L13.5059 1.25977L13.7598 1.36719L14.043 1.49414L14.4141 1.67969L14.6387 1.80664L14.8438 1.92383L15.0293 2.04102L15.1953 2.14844L15.3516 2.25586L15.5176 2.37305L15.7227 2.5293L15.8203 2.60742L15.957 2.71484L16.0938 2.83203L16.2402 2.95898L16.3574 3.06641L16.4844 3.18359L16.6211 3.32031L16.6797 3.36914L16.748 3.44727L16.8457 3.54492L16.9141 3.62305L17.041 3.75977L17.1289 3.86719L17.2168 3.96484L17.3242 4.10156L17.4414 4.24805L17.5293 4.36523L17.6562 4.54102L17.793 4.73633L17.9004 4.90234L18.0469 5.13672L18.2812 5.54688L18.4766 5.9375L18.6523 6.33789L18.7891 6.68945L18.9453 7.14844L19.0625 7.56836L19.1406 7.89062L19.2188 8.29102L19.2773 8.68164L19.3262 9.13086L19.3457 9.43359L19.3555 9.6875V10.1855L19.3262 10.7031L19.2773 11.1426L19.2188 11.5332L19.1504 11.875L19.0527 12.2852L18.9453 12.6562L18.8281 13.0078L18.7109 13.3203L18.6133 13.5547L18.457 13.9062L18.3008 14.2188L18.1836 14.4336L18.0469 14.668L17.9199 14.873L17.832 15.0098L17.7539 15.127L17.666 15.2539L17.5391 15.4297L17.4512 15.5469L17.3438 15.6836L17.2168 15.8398L17.1094 15.9668L17.0215 16.0645L16.9531 16.1426L16.8652 16.2402L16.7871 16.3281H16.7676L16.748 16.3672L16.4844 16.6309L16.4062 16.6992L16.3477 16.7578H16.3281V16.7773L16.25 16.8457L16.1035 16.9727L15.9766 17.0801L15.8301 17.1973L15.5371 17.4219L15.3418 17.5586L15.1855 17.666L14.9707 17.8027L14.7266 17.9492L14.4531 18.1055L14.248 18.2129L14.0234 18.3203L13.7695 18.4375L13.4863 18.5547L13.2031 18.6621L12.8613 18.7793L12.4121 18.9062L12.0898 18.9844L11.709 19.0625L11.2695 19.1309L10.8008 19.1797L10.5078 19.1992L10.2441 19.209H9.84375L9.43359 19.1895L9.00391 19.1504L8.64258 19.1016L8.30078 19.043L7.89062 18.9551L7.45117 18.8379L7.08008 18.7207L6.77734 18.6133L6.48438 18.4961L6.19141 18.3691L5.9082 18.2324L5.61523 18.0859L5.44922 18.125L4.93164 18.2617L4.51172 18.3691L3.80859 18.5547L2.54883 18.8867L2.08984 19.0039L0.830078 19.3359L0.722656 19.3652L0.683594 19.3555L0.849609 18.7402L1.04492 18.0273L1.21094 17.4219L1.39648 16.748L1.58203 16.0645L1.80664 15.2441L1.98242 14.5996V14.5312L1.91406 14.3945L1.83594 14.2578L1.70898 14.0137L1.58203 13.7402L1.45508 13.4473L1.31836 13.0957L1.20117 12.7539L1.11328 12.4609L1.00586 12.0508L0.917969 11.6309L0.849609 11.2109L0.800781 10.791L0.771484 10.4199L0.761719 10.1953V9.59961L0.78125 9.21875L0.830078 8.74023L0.888672 8.34961L0.947266 8.03711L1.04492 7.61719L1.11328 7.36328L1.18164 7.12891L1.31836 6.72852L1.45508 6.37695L1.58203 6.08398L1.72852 5.77148L1.92383 5.40039L2.02148 5.23438L2.14844 5.01953L2.24609 4.87305L2.31445 4.76562L2.40234 4.63867L2.51953 4.47266L2.59766 4.36523L2.71484 4.20898L2.8418 4.05273L2.91992 3.95508L3.04688 3.80859L3.13477 3.70117H3.1543L3.17383 3.66211L3.22266 3.60352H3.24219L3.26172 3.56445L3.4082 3.41797L3.47656 3.33984L3.54492 3.27148L3.62305 3.20312L3.75 3.07617L3.82812 3.00781L3.93555 2.91016L4.04297 2.82227L4.14062 2.73438L4.23828 2.65625L4.41406 2.51953L4.54102 2.42188L4.70703 2.30469L4.90234 2.16797L5.11719 2.03125L5.30273 1.91406L5.57617 1.75781L5.83984 1.62109L6.04492 1.51367L6.36719 1.36719L6.69922 1.23047L6.99219 1.12305L7.38281 0.996094L7.77344 0.888672L8.19336 0.791016L8.63281 0.712891L8.99414 0.664062L9.28711 0.634766L9.60938 0.615234L9.89258 0.605469ZM9.84375 2.1875L9.45312 2.20703L9.08203 2.24609L8.74023 2.29492L8.39844 2.36328L8.07617 2.44141L7.74414 2.53906L7.34375 2.67578L7.01172 2.8125L6.66992 2.96875L6.36719 3.125L6.13281 3.26172L5.9375 3.37891L5.79102 3.47656L5.5957 3.61328L5.45898 3.71094L5.33203 3.80859L5.17578 3.93555L5.06836 4.02344L4.96094 4.12109L4.86328 4.19922V4.21875L4.82422 4.23828L4.69727 4.36523L4.61914 4.43359L4.55078 4.50195L4.48242 4.58008L4.375 4.6875V4.70703H4.35547L4.26758 4.81445L4.17969 4.91211L4.0918 5.01953L3.96484 5.17578L3.86719 5.30273L3.63281 5.63477L3.51562 5.82031L3.41797 5.97656L3.33008 6.13281L3.23242 6.30859L3.14453 6.47461L3.01758 6.74805L2.91016 6.99219L2.80273 7.27539L2.68555 7.61719L2.57812 7.99805L2.49023 8.38867L2.42188 8.76953L2.37305 9.17969L2.34375 9.61914V10.2246L2.37305 10.6445L2.42188 11.0547L2.5 11.4941L2.59766 11.9043L2.71484 12.2949L2.82227 12.6074L2.93945 12.9004L3.06641 13.1836L3.18359 13.4277L3.30078 13.6426L3.39844 13.8184L3.53516 14.043L3.65234 14.2285L3.69141 14.2871L3.68164 14.3848L3.47656 15.1367L3.25195 15.957L3.05664 16.6699L2.92969 17.1289L2.93945 17.1484L5.70312 16.4258L5.81055 16.3965L5.86914 16.4062L6.00586 16.4844L6.24023 16.6211L6.45508 16.7383L6.62109 16.8262L6.89453 16.9531L7.23633 17.0996L7.5 17.1973L7.87109 17.3145L8.23242 17.4121L8.54492 17.4805L8.80859 17.5293L9.16992 17.5781L9.58008 17.6172L9.73633 17.627H10.3418L10.7617 17.5977L11.1035 17.5586L11.4746 17.5L11.7969 17.4316L12.1094 17.3535L12.4609 17.2461L12.793 17.1289L13.0859 17.0117L13.3691 16.8848L13.5547 16.7871L13.75 16.6895L13.9844 16.5527L14.1797 16.4355L14.4434 16.2598L14.6191 16.1328L14.7363 16.0449L14.9121 15.9082L15.0195 15.8203L15.1172 15.7324L15.2246 15.6445L15.3223 15.5469L15.4004 15.4785L15.6738 15.2051V15.1855L15.7031 15.1758L15.7715 15.0977L15.7812 15.0684H15.8008L15.8887 14.9609L15.9863 14.8535L16.2012 14.5801L16.2891 14.4629L16.416 14.2871L16.5137 14.1406L16.6504 13.9258L16.7969 13.6719L16.9141 13.457L17.0605 13.1641L17.1973 12.8516L17.3145 12.5488L17.4316 12.1973L17.5293 11.8652L17.6172 11.4844L17.6855 11.1133L17.7344 10.7324L17.7637 10.3809L17.7734 10.1562V9.66797L17.7539 9.29688L17.7246 8.98438L17.6758 8.64258L17.627 8.36914L17.5293 7.94922L17.4316 7.60742L17.2852 7.17773L17.1582 6.86523L17.0117 6.54297L16.8848 6.28906L16.7578 6.06445L16.6309 5.84961L16.5234 5.68359L16.4258 5.53711L16.3086 5.37109L16.2207 5.25391L16.0059 4.98047L15.918 4.88281L15.8301 4.77539L15.7129 4.64844L15.6445 4.57031H15.625L15.6055 4.53125L15.4102 4.33594L15.332 4.26758L15.2441 4.17969L15.1367 4.0918L15.0195 3.98438L14.8828 3.87695L14.7266 3.75L14.5508 3.62305L14.3262 3.4668L14.1406 3.34961L13.8965 3.20312L13.7207 3.10547L13.4961 2.98828L13.2129 2.85156L12.8613 2.70508L12.5098 2.57812L12.1582 2.4707L11.7285 2.36328L11.377 2.29492L11.0449 2.24609L10.7715 2.2168L10.4785 2.19727L10.2344 2.1875H9.84375Z" fill="#303030"/>
<path d="M6.73828 5.60547H7.02148L7.33398 5.61523L7.43164 5.63477L7.50977 5.67383L7.61719 5.78125L7.69531 5.9082L7.7832 6.10352L7.92969 6.46484L8.04688 6.74805L8.23242 7.19727L8.37891 7.54883L8.48633 7.80273L8.51562 7.89062V8.06641L8.4375 8.22266L8.33984 8.37891L8.10547 8.69141L7.97852 8.84766L7.87109 8.98438L7.7832 9.10156L7.75391 9.17969V9.29688L7.79297 9.4043L7.90039 9.58008L7.99805 9.73633L8.10547 9.89258L8.23242 10.0684L8.35938 10.2344L8.48633 10.3906L8.60352 10.5273L8.83789 10.7812L8.92578 10.8691L9.00391 10.9375L9.10156 11.0352L9.20898 11.123L9.3457 11.2402L9.54102 11.3867L9.7168 11.5137L9.96094 11.6699L10.127 11.7676L10.3418 11.8848L10.5566 11.9922L10.8887 12.1387L11.0352 12.207L11.1523 12.2363H11.25L11.3477 12.1973L11.4355 12.1289L11.5234 12.0215L11.6406 11.8848L11.748 11.7578L11.9238 11.543L12.002 11.4453L12.0898 11.3281L12.168 11.2207L12.2559 11.1133L12.334 11.0547L12.4121 11.0254H12.5L12.6562 11.0645L12.959 11.1914L13.3496 11.377L13.9941 11.6895L14.3262 11.8555L14.5117 11.9434L14.6582 12.0312L14.7266 12.0898L14.7656 12.1582L14.7852 12.3242L14.7656 12.6074L14.7168 12.8711L14.6582 13.0957L14.5996 13.2617L14.5215 13.4082L14.4434 13.5156L14.4141 13.5547H14.3945L14.375 13.5938L14.2578 13.7109L14.1504 13.7988L14.0332 13.8867L13.8672 13.9941L13.7109 14.082L13.5547 14.1602L13.3789 14.2383L13.1641 14.3066L13.0273 14.3359L12.793 14.3652L12.6562 14.375H12.2949L12.0703 14.3555L11.7969 14.3066L11.5234 14.2285L11.1719 14.1113L10.918 14.0234L10.5664 13.8867L10.2832 13.7695L9.94141 13.6133L9.69727 13.4863L9.46289 13.3496L9.26758 13.2324L9.0918 13.1152L8.92578 12.998L8.78906 12.9004L8.51562 12.6855L8.34961 12.5488L8.27148 12.4805L8.17383 12.3926L8.06641 12.3047L7.99805 12.2363L7.91992 12.168L7.75391 12.002L7.71484 11.9727V11.9531L7.67578 11.9336V11.9141H7.65625L7.58789 11.8359L7.39258 11.6406L7.32422 11.5625L7.20703 11.4355L7.11914 11.3281L7.01172 11.2109L6.93359 11.1133L6.83594 10.9961L6.72852 10.8594L6.63086 10.7324L6.35742 10.3613L6.12305 10.0293L6.01562 9.86328L5.86914 9.61914L5.75195 9.39453L5.67383 9.23828L5.56641 8.98438L5.46875 8.71094L5.40039 8.44727L5.36133 8.24219L5.33203 7.97852V7.66602L5.35156 7.46094L5.39062 7.23633L5.44922 7.01172L5.51758 6.81641L5.5957 6.64062L5.70312 6.44531L5.81055 6.28906L5.91797 6.15234L6.03516 6.01562L6.07422 5.9668H6.09375L6.11328 5.92773L6.2207 5.82031L6.35742 5.72266L6.49414 5.6543L6.64062 5.61523L6.73828 5.60547Z" fill="#303030"/>
</g>
<defs>
<clipPath id="clip0_56_183">
<rect width="20" height="20" fill="white"/>
</clipPath>
</defs>
</svg>
